<?xml version="1.0" encoding="UTF-8"?>
<svg width="42px" height="42px" viewBox="0 0 42 42" version="1.1" xmlns="http://www.w3.org/2000/svg" xmlns:xlink="http://www.w3.org/1999/xlink">
    <title>kodi-logo</title>
    <g id="kodi-logo" stroke="none" stroke-width="1" fill="none" fill-rule="evenodd">
        <rect id="Box" fill-opacity="0.05" fill="#001D2F" x="0" y="0" width="42" height="42" rx="5"></rect>
        <path d="M21.6302521,23.1054865 L24.4586793,25.9339137 C24.7320463,26.2072807 24.7320463,26.6504961 24.4586793,26.9238631 L21.6302521,29.7522903 C21.3568851,30.0256573 20.9136697,30.0256573 20.6403026,29.7522903 L17.8118755,26.9238631 C17.5385085,26.6504961 17.5385085,26.2072807 17.8118755,25.9339137 L20.6403026,23.1054865 C20.9136697,22.8321195 21.3568851,22.8321195 21.6302521,23.1054865 Z M26.9333348,17.7466722 L29.761762,20.5750993 C30.035129,20.8484663 30.035129,21.2916818 29.761762,21.5650488 L26.9333348,24.3934759 C26.6599678,24.6668429 26.2167523,24.6668429 25.9433853,24.3934759 L23.1149582,21.5650488 C22.8415912,21.2916818 22.8415912,20.8484663 23.1149582,20.5750993 L25.9433853,17.7466722 C26.2167523,17.4733052 26.6599678,17.4733052 26.9333348,17.7466722 Z M15.2516805,17.7423295 C15.3505158,17.7818636 15.3900499,17.8708153 15.409817,17.9795341 C15.4197005,18.0388353 15.429584,18.10802 15.429584,18.1673211 C15.4197005,19.1457903 15.4197005,20.1242596 15.4197005,21.0928453 L15.4197005,24.0084859 L15.4197005,24.0084859 C15.4197005,24.0974376 15.3999334,24.1962729 15.3702829,24.2852246 C15.3010982,24.4532446 15.1824958,24.4730116 15.05401,24.3445258 C14.6092512,23.8997671 14.1644925,23.4550083 13.7197338,23.0003661 C13.2057903,22.4864226 12.6918469,21.9724792 12.1779035,21.4486522 C11.9604659,21.2312146 11.9604659,20.9347088 12.1779035,20.7271547 L15.0243594,17.8510483 L15.0243594,17.8510483 C15.0836606,17.7917471 15.1429617,17.7027953 15.2516805,17.7423295 Z M21.6265557,12.2569717 L24.4730116,15.1034276 L24.4730116,15.1034276 C24.7991681,15.429584 24.7991681,15.785391 24.4730116,16.1115474 C23.356173,17.2382696 22.2294509,18.3551082 21.1126123,19.4818303 C20.1242596,20.470183 19.1359068,21.4684193 18.1376705,22.456772 C17.9498835,22.6445591 17.7917471,22.5951414 17.7225624,22.3480532 C17.7027953,22.268985 17.7027953,22.1800333 17.7027953,22.1009651 C17.6830283,21.0038935 17.6929118,19.906822 17.6929118,18.7998669 C17.6929118,17.7423295 17.7027953,16.684792 17.6830283,15.6272546 C17.6830283,15.3208652 17.752213,15.0836606 17.9894176,14.8761065 C18.1772047,14.71797 18.3452246,14.530183 18.5231281,14.3522795 L20.6184359,12.2569717 L20.6184359,12.2569717 C20.9445923,11.9308153 21.3003993,11.9308153 21.6265557,12.2569717 Z" id="Combined-Shape" fill="#001D2F"></path>
    </g>
</svg>