<?xml version="1.0" encoding="UTF-8"?>
<svg width="85px" height="48px" viewBox="0 0 85 48" version="1.1" xmlns="http://www.w3.org/2000/svg" xmlns:xlink="http://www.w3.org/1999/xlink">
    <title>svg/hulu-logo</title>
    <g id="ðŸ“-Dev-note" stroke="none" stroke-width="1" fill="none" fill-rule="evenodd">
        <g id="Export-icon-array-logos" transform="translate(-439.000000, -186.000000)" fill="#001D2F">
            <g id="hulu-logo" transform="translate(439.000000, 186.000000)">
                <rect id="Box" fill-opacity="0.05" x="0" y="0" width="85" height="48" rx="5"></rect>
                <g id="Logo-1" transform="translate(10.000000, 3.000000)">
                    <path d="M38.0585481,28.86 L41.9827549,28.86 L41.9827549,12.61 L38.0585481,12.61 L38.0585481,28.86 L38.0585481,28.86 Z M31.1445589,24.2370306 C31.1445589,24.8170161 30.6740629,25.2868335 30.0941895,25.2868335 L27.8117311,25.2868335 C27.2293887,25.2868335 26.7597322,24.8170161 26.7597322,24.2370306 C26.7597322,24.0185682 26.7597322,17.680546 26.7597322,17.680546 L22.8363155,17.680546 L22.8363155,24.5640338 C22.8363155,27.3773655 24.6384513,28.8599507 27.3033605,28.8599507 L31.1445095,28.8599507 L31.1445095,28.8394359 C33.5989102,28.8394359 35.0687163,27.0955835 35.0687163,24.5640338 L35.0687163,17.680546 L31.1445589,17.680546 C31.1445589,17.680546 31.1445589,24.0186176 31.1445589,24.2370306 Z M53.2766821,17.680546 C53.2766821,17.680546 53.2766821,24.0185682 53.2766821,24.2370306 C53.2766821,24.8170161 52.8062355,25.2868335 52.2263127,25.2868335 L49.943805,25.2868335 C49.362302,25.2868335 48.8926455,24.8170161 48.8926455,24.2370306 C48.8926455,24.0185682 48.8926455,17.680546 48.8926455,17.680546 L44.9684388,17.680546 L44.9684388,24.5640338 C44.9684388,27.3773655 46.7705745,28.8599507 49.4355331,28.8599507 L53.2766327,28.8599507 L53.2766327,28.8394359 C55.7310334,28.8394359 57.2,27.0955835 57.2,24.5640338 L57.2,17.680546 L53.2766821,17.680546 Z M15.5653064,17.680546 C15.5653064,17.680546 13.5213551,17.680546 13.0492296,17.680546 C12.1658646,17.680546 11.7233179,17.9183396 11.7233179,17.9183396 L11.7233179,12.61 L7.8,12.61 L7.8,28.86 L11.7233673,28.86 L11.7233673,22.3026771 C11.7233673,21.7227408 12.1938632,21.2528742 12.7745267,21.2528742 L15.0578246,21.2528742 C15.6384881,21.2528742 16.1081939,21.7227408 16.1081939,22.3026771 L16.1081939,28.86 L20.0324007,28.86 L20.0324007,21.7950356 C20.0324007,18.8239475 18.0484959,17.680546 15.5653064,17.680546 Z" id="Logo"></path>
                </g>
            </g>
        </g>
    </g>
</svg>