<?xml version="1.0" encoding="utf-8"?>
<!-- Generator: Adobe Illustrator 25.2.1, SVG Export Plug-In . SVG Version: 6.00 Build 0)  -->
<svg version="1.1" id="Layer_1" xmlns="http://www.w3.org/2000/svg" xmlns:xlink="http://www.w3.org/1999/xlink" x="0px" y="0px"
	 viewBox="0 0 85 48" style="enable-background:new 0 0 85 48;" xml:space="preserve">
<style type="text/css">
	.st0{fill-rule:evenodd;clip-rule:evenodd;fill:#001D2F;fill-opacity:0.05;}
	.st1{fill:#001D2F;}
</style>
<g id="_xD83D__xDCDD_-Dev-note">
	<g id="Export-icon-array-logos" transform="translate(-439.000000, -186.000000)">
		<g id="hulu-logo" transform="translate(439.000000, 186.000000)">
			<path id="Box" class="st0" d="M5,0h75c2.761,0,5,2.239,5,5v38c0,2.761-2.239,5-5,5H5c-2.761,0-5-2.239-5-5V5C0,2.239,2.239,0,5,0
				z"/>
		</g>
	</g>
</g>
<g>
	<path id="path3441" class="st1" d="M18.698,29.426h-2.911v-4.152h-1.883v4.152h-2.986V18.717h2.98v3.996h1.883v-3.996h2.911v10.709
		C18.692,29.426,18.698,29.426,18.698,29.426z M32.043,29.472c2.98,0,5.415-2.481,5.415-5.501c0-3.066-2.435-5.438-5.415-5.438
		c-3.02,0-4.548,2.193-4.915,3.089c0-1.326-1.326-2.911-2.865-2.911h-4.973v10.715h4.628c1.883,0,3.21-1.608,3.21-3.02
		C27.547,27.279,29.028,29.472,32.043,29.472L32.043,29.472L32.043,29.472z M23.55,25.12c0.431,0,0.775,0.419,0.775,0.896
		c0,0.5-0.345,0.919-0.775,0.919h-1.481V25.12H23.55L23.55,25.12z M23.55,21.1c0.431,0,0.775,0.419,0.775,0.896
		c0,0.477-0.345,0.896-0.775,0.896h-1.481V21.1H23.55L23.55,21.1z M25.508,23.971c0.345-0.023,0.907-0.419,1.12-0.655
		c-0.08,0.287-0.08,1.194,0,1.481C26.392,24.448,25.853,24.034,25.508,23.971C25.508,23.971,25.508,23.971,25.508,23.971z
		 M29.327,23.971c0-1.51,1.229-2.727,2.739-2.722c1.516,0.011,2.722,1.246,2.705,2.762c-0.023,1.493-1.229,2.693-2.722,2.693
		C30.544,26.705,29.327,25.487,29.327,23.971L29.327,23.971L29.327,23.971z M32.043,26.119c1.16,0,2.136-0.953,2.136-2.148
		c0-1.194-0.976-2.136-2.136-2.136c-1.194,0-2.148,0.942-2.148,2.136C29.895,25.166,30.848,26.119,32.043,26.119L32.043,26.119z"/>
	<path id="XMLID_1_" class="st1" d="M53.018,22.507c-0.057-2.595-1.895-3.968-4.146-3.968c-1.235,0-2.349,0.413-3.106,1.217
		c-0.758-0.804-1.872-1.217-3.106-1.217c-2.251,0-4.088,1.378-4.146,3.974c0,0.006,0,0.011,0,0.017v5.92
		c0,0.545,0.442,0.982,0.982,0.982h0.93c0.092,0,0.167-0.075,0.167-0.167v-6.741l0,0c0.04-1.28,0.947-1.958,2.067-1.958
		s2.027,0.678,2.067,1.958l0,0v5.92c0,0.545,0.442,0.982,0.982,0.982h0.93c0.092,0,0.167-0.075,0.167-0.167v-6.741l0,0
		c0.04-1.28,0.947-1.958,2.067-1.958s2.027,0.678,2.067,1.958l0,0v5.92c0,0.545,0.442,0.982,0.982,0.982h0.93
		c0.092,0,0.167-0.075,0.167-0.167v-6.741C53.024,22.519,53.018,22.513,53.018,22.507L53.018,22.507z M73.96,18.706h-1.579
		c-0.436,0-0.844,0.218-1.091,0.58l-1.746,2.584c-0.23,0.339-0.724,0.339-0.953,0l-1.746-2.584c-0.241-0.362-0.655-0.58-1.091-0.58
		h-1.579c-0.098,0-0.155,0.109-0.103,0.189l3.112,4.617c0.224,0.333,0.224,0.769,0,1.102l-3.112,4.617
		c-0.057,0.08,0.006,0.189,0.103,0.189h1.579c0.436,0,0.844-0.218,1.091-0.58l1.746-2.584c0.23-0.339,0.724-0.339,0.953,0
		l1.746,2.584c0.241,0.362,0.655,0.58,1.091,0.58h1.579c0.098,0,0.155-0.109,0.103-0.189l-3.118-4.611
		c-0.224-0.333-0.224-0.769,0-1.102l3.112-4.617C74.115,18.821,74.057,18.706,73.96,18.706L73.96,18.706z M63.36,18.706h-0.93
		c-0.471,0-0.867,0.333-0.965,0.775c-0.827-0.632-1.866-0.953-2.986-0.953c-2.722,0-4.932,1.895-4.932,5.472
		s2.205,5.472,4.932,5.472c1.114,0,2.142-0.316,2.969-0.936c0.046,0.5,0.465,0.896,0.982,0.896h0.93
		c0.092,0,0.167-0.075,0.167-0.167V18.872C63.521,18.78,63.452,18.706,63.36,18.706z M58.479,27.44
		c-1.625,0-2.946-1.189-2.946-3.434s1.321-3.434,2.946-3.434s2.946,1.189,2.946,3.434S60.104,27.44,58.479,27.44z"/>
</g>
</svg>
