<?xml version="1.0" encoding="UTF-8"?>
<svg width="85px" height="48px" viewBox="0 0 85 48" version="1.1" xmlns="http://www.w3.org/2000/svg" xmlns:xlink="http://www.w3.org/1999/xlink">
    <title>disney-plus-logo</title>
    <g id="disney-plus-logo" stroke="none" stroke-width="1" fill="none" fill-rule="evenodd">
        <g id="Logo-4" fill="#001D2F">
            <rect id="Box" fill-opacity="0.05" x="0" y="0" width="85" height="48" rx="5"></rect>
            <g id="Logo-1" transform="translate(10.000000, 3.000000)">
                <path d="M29.8309766,26.2864335 C29.8657667,26.2922836 29.8715651,26.2922836 29.9005569,26.2981337 C30.4224089,26.368335 30.9384626,26.4619367 31.3269524,26.64329 C31.6922488,26.8070929 31.906788,27.0118466 32.0981338,27.3745532 C32.3938499,27.9303132 32.411245,28.7083773 32.1445206,29.2933879 C31.9473765,29.7321459 31.5067015,30.1007025 31.1066149,30.293756 C30.6891333,30.4985097 30.2832483,30.5921114 29.8077832,30.6506125 C28.9844166,30.7442142 28.0972682,30.568711 27.3550786,30.2060044 C26.9144035,29.9895505 26.3809548,29.6209938 26.1142304,29.1412852 C25.9170863,28.7902788 25.9228847,28.3339706 26.1664156,28.0005145 C26.5491071,27.4681549 27.3724737,27.3511528 27.9928978,27.3745532 C28.4683629,27.3921035 29.3207213,27.5383562 29.7671947,27.7021591 C29.8889601,27.74896 30.3528286,27.9303132 30.4282072,28.0122147 C30.4861908,28.0707158 30.5209809,28.1526173 30.4977875,28.2286686 C30.3934171,28.5445744 29.6338325,28.7142274 29.413495,28.743478 C28.8220627,28.8370797 28.5205481,28.6089255 27.8479389,28.3398207 C27.6797865,28.2754695 27.459449,28.1994181 27.2912967,28.1877179 C26.9897822,28.1584674 26.6186874,28.246219 26.5607038,28.579675 C26.5317121,28.7551782 26.7346545,28.913131 26.8854118,28.9833323 C27.2449098,29.1412852 27.5348276,29.1939361 27.8885273,29.1997862 C28.9322314,29.2173365 30.1092977,29.0418334 30.961656,28.4334224 C31.0776231,28.3515209 31.1935902,28.2286686 31.1935902,28.0707158 C31.1993886,27.7548101 30.6543431,27.5617566 30.6543431,27.5617566 C30.0803059,27.3219022 29.0134084,27.19905 28.4683629,27.1580993 C27.8943257,27.1054483 26.9897822,27.035247 26.7694446,27.0001464 C26.5433088,26.9650458 26.2997778,26.924095 26.1084321,26.8363434 C25.911288,26.7485919 25.7257406,26.5496883 25.667757,26.3273842 C25.569185,25.929577 25.6967488,25.4440183 25.911288,25.1281125 C26.4853252,24.2973975 27.8189471,23.9873419 28.8220627,23.8586396 C29.7903881,23.7357873 31.3559442,23.7357873 32.3068746,24.2505967 C32.4518335,24.3324981 32.5272121,24.4026994 32.4982203,24.5606523 C32.4344384,24.8590077 32.2141009,25.0520612 31.9473765,25.1339626 C31.6632571,25.2217142 31.0834215,25.2568149 30.8282938,25.2743652 C29.6802193,25.3387163 28.2944123,25.3036157 27.2043213,25.6078212 C27.117346,25.6312216 26.9723871,25.6721724 26.9202019,25.7248233 C26.7520496,25.9120267 27.2391115,25.9646777 27.3434819,25.9880781 C27.3724737,25.9939282 27.378272,25.9939282 27.4130622,25.9997783 L29.8309766,26.2864335 M23.01211,21.1324902 C23.01211,21.1324902 23.1976574,20.8516851 23.354213,20.6352312 C23.6383324,20.2432741 24.1543861,19.7050644 24.542876,19.3716084 C24.6588431,19.2721566 24.803802,19.1551544 24.803802,19.1551544 C24.803802,19.1551544 24.5834645,19.1785549 24.461699,19.2019553 C24.1659828,19.2604563 23.7369045,19.5471115 23.5223653,19.7343149 C23.1686656,20.0385204 22.7743774,20.5416295 22.9541264,20.9862376 C22.9715215,21.0447386 23.01211,21.1324902 23.01211,21.1324902 M24.9893494,21.6648499 C25.5517899,21.6238991 26.0794403,21.4600961 26.5665022,21.1909913 C27.0477657,20.9218864 27.7551652,20.3895268 27.6797865,19.7694156 C27.6565931,19.570512 27.5290293,19.4184092 27.360877,19.3482079 C27.1463378,19.2546062 27.036169,19.2721566 26.7636463,19.354058 C26.5665022,19.4125591 26.4737285,19.4476597 26.2881811,19.5588117 C25.7373373,19.8805676 24.9545592,20.5708801 24.5312793,21.1266401 C24.4327072,21.2553424 24.3341352,21.4015951 24.2587565,21.5010469 C24.2123697,21.5653981 24.1717812,21.618049 24.1775795,21.6355993 C24.1891763,21.6882503 24.7690119,21.6824002 24.9893494,21.6648499 M23.5571555,22.723719 C23.4991719,22.7880702 23.43539,22.9343228 23.3716081,23.0454748 C23.3368179,23.1039759 23.273036,23.1800273 23.2324475,23.2092778 C23.0874886,23.3204298 22.9599248,23.3204298 22.8207643,23.1975776 C22.6236202,23.0220744 22.507653,22.7471194 22.5018547,22.4838647 C22.4960563,22.3668626 22.5192497,22.2381602 22.4960563,22.1445585 C22.4612662,21.9807556 22.2989122,21.8111025 22.2061385,21.6531496 C22.1017681,21.4659463 22.0205911,21.1441904 22.0089944,20.9335866 C21.9742043,20.2783748 22.3163073,19.681664 22.7569823,19.2078054 C23.2034557,18.7280967 23.7890897,18.3302895 24.4211105,18.0611846 C25.0183412,17.80378 25.8996913,17.6341269 26.5607038,17.862281 C26.775243,17.9383324 27.0767575,18.1196857 27.2217164,18.3127392 C27.2507082,18.3536899 27.2797,18.3946407 27.3144901,18.4180411 C27.3434819,18.4355914 27.4188605,18.4414415 27.4826424,18.4531417 C27.6913832,18.4882424 27.9928978,18.6520453 28.1204616,18.7573472 C28.3697909,18.9738012 28.5031531,19.1785549 28.566935,19.4769103 C28.6944988,20.0794712 28.3465975,20.7405331 27.9581076,21.1441904 C27.2854983,21.8345029 26.6244858,22.3259118 25.7663291,22.665218 C25.3894359,22.8114706 24.803802,22.9518731 24.3747236,22.9167725 C24.2413615,22.9050723 24.1079993,22.8699717 23.9746371,22.8641216 C23.9108552,22.8582715 23.6673242,22.7939203 23.6441308,22.77637 C23.6093407,22.7412693 23.5629538,22.7178689 23.5571555,22.723719 M24.3225384,24.0633933 C24.3515302,24.0692434 24.3863204,24.0809436 24.4211105,24.0926438 C24.722625,24.2096459 24.8443905,24.490451 24.9197691,24.8005066 C25.0937198,25.5200696 25.1633001,27.1054483 25.1922918,27.7255595 C25.2154853,28.193568 25.227082,28.6498763 25.244477,29.1120346 C25.2618721,29.5039917 25.2908639,30.018801 25.2096869,30.3873577 C25.1806951,30.51606 25.0937198,30.6740129 24.966156,30.7500643 C24.8211971,30.843666 24.4964891,30.8495161 24.3167401,30.8144154 C23.876065,30.7208138 23.7311061,30.4341586 23.6673242,29.9954006 C23.516567,28.9482317 23.5919456,26.8889944 23.6789209,26.0173286 C23.7079127,25.7306734 23.8180815,24.8122068 23.9630404,24.4260998 C24.0268223,24.2856973 24.1369911,24.0224425 24.3225384,24.0633933 M10.9167395,25.8067248 C10.9167395,25.8067248 10.2615253,25.8535257 9.80925353,25.9061766 C9.2352163,25.9705278 8.15672209,26.1577312 7.53049965,26.3800352 C7.34495226,26.4502365 6.96226077,26.6081893 6.93326899,26.8012428 C6.89847885,27.0001464 7.02024433,27.1580993 7.15940487,27.3219022 C7.24058185,27.4155039 7.68705526,27.8542619 7.81461909,27.9595638 C8.34226948,28.4041718 9.41496533,29.0944843 10.2035417,29.4279404 C10.4760645,29.5390924 10.9225379,29.7028953 10.9225379,29.7028953 C10.9225379,29.7028953 10.8877477,28.415872 10.8935461,27.140549 C10.8993445,26.4736369 10.9167395,25.8067248 10.9167395,25.8067248 M22.9425297,26.3215341 C22.9773199,26.6666904 22.8903445,27.3219022 22.8787478,27.4096538 C22.849756,27.6085574 22.7047971,28.0707158 22.6758054,28.1233667 C22.5540399,28.4041718 22.4380728,28.632326 22.3105089,28.8604801 C22.0959698,29.2524372 21.5857144,29.8725484 21.2784016,30.1358032 C20.1477222,31.118621 18.402417,31.6802311 16.9006428,31.8674345 C15.8801322,31.9902867 14.7146627,31.9727364 13.6361685,31.7738328 C13.2650737,31.7036315 12.7142299,31.5749292 12.7142299,31.5749292 C12.7142299,31.5749292 12.7142299,31.7972332 12.6968348,31.9551861 C12.6910364,32.0253874 12.6330529,32.2125907 12.6040611,32.2769419 C12.5228841,32.4407449 12.3953203,32.5226464 12.2097729,32.5635971 C11.983637,32.6045478 11.7459044,32.6220982 11.5371636,32.5284965 C11.1950606,32.3822438 11.0732951,32.060488 11.0095132,31.6860812 C10.9631264,31.3877258 10.9109412,30.8670664 10.9109412,30.8670664 C10.9109412,30.8670664 10.6558135,30.7442142 10.4412743,30.6389123 C9.78606011,30.3113063 9.15983767,29.9193492 8.61479221,29.5098418 C8.46403496,29.3986898 7.81461909,28.8487799 7.66966019,28.7083773 C7.27537199,28.3222703 6.91587392,27.9361634 6.63755284,27.4447545 C6.42301367,27.0586475 6.35923175,26.7193413 6.52738407,26.315684 C6.75351996,25.7482238 7.55949143,25.321166 8.11033524,25.0813117 C8.51622016,24.8999584 9.7744634,24.4846009 10.2963154,24.4085495 C10.5456447,24.3734489 10.9283362,24.3032476 10.9515297,24.2856973 C10.9631264,24.2798472 10.9689247,24.2739971 10.9747231,24.2622969 C10.9863198,24.2447465 11.0095132,23.6831364 11.0037149,23.4783827 C10.9979165,23.273629 11.1544721,21.951505 11.200859,21.6707 C11.2240524,21.5185972 11.3400195,20.9335866 11.4559866,20.7814839 C11.5313652,20.676182 11.6647274,20.6878822 11.7748962,20.7522333 C12.3721269,21.1266401 12.5576742,22.4312137 12.6040611,23.0981258 C12.6330529,23.5017831 12.6446496,24.1101941 12.6446496,24.1101941 C12.6446496,24.1101941 13.3346539,24.0867937 13.7579339,24.104344 C14.1696172,24.1160442 14.621889,24.1803954 15.0509673,24.2505967 C15.5960128,24.3383482 16.6629103,24.5723525 17.2717376,24.8882582 C17.7761946,25.1456629 18.2458614,25.5785707 18.3966187,26.0348789 C18.5357792,26.4560866 18.5183842,26.7485919 18.303845,27.1288487 C18.060314,27.5559065 17.6022439,27.8776623 17.1383754,27.9010627 C16.9992149,27.9069128 16.4773629,27.8367116 16.3208073,27.7138593 C16.2570253,27.6612084 16.2628237,27.5734568 16.3092105,27.5149557 C16.3266056,27.4915553 16.5701366,27.362853 16.7150955,27.2868016 C16.7846757,27.2458509 16.8484576,27.2049001 16.9006428,27.1522492 C17.0224083,27.0469473 17.1267787,26.9299451 17.115182,26.7895426 C17.0977869,26.6140394 16.9122396,26.5028874 16.7324905,26.4326861 C15.8975273,26.0992301 14.2333991,25.818425 13.4274276,25.7716242 C13.1143164,25.7540739 12.6620447,25.7365235 12.6620447,25.7365235 L12.7548183,30.2177046 C12.7548183,30.2177046 13.1259131,30.2879059 13.4158309,30.3347068 C13.5839832,30.3581072 14.2913827,30.4224584 14.4827284,30.4283085 C15.9207207,30.4692592 17.5210669,30.3347068 18.8372937,29.7087454 C19.4171293,29.4337905 19.9447797,29.0944843 20.3506646,28.6264758 C20.878315,28.0122147 21.1566361,27.1756496 21.0870558,26.2981337 C21.0058788,25.3387163 20.3390679,24.2037958 19.8056192,23.5134833 C18.3966187,21.6882503 15.9845026,20.1847731 13.8623043,19.3014071 C11.6937192,18.4004908 9.55412587,17.8856815 7.25217857,17.7979299 C6.66074626,17.7745294 5.36771289,17.80378 4.71249867,17.9909834 C4.61972497,18.0202339 4.52695128,18.0494844 4.43997594,18.0670347 C4.37039567,18.0845851 4.26602526,18.1313859 4.23123512,18.1547863 C4.21384005,18.1664865 4.19644499,18.1840369 4.19644499,18.1840369 C4.19644499,18.1840369 4.23703348,18.2074373 4.27762197,18.2249876 C4.34720224,18.2542381 4.63712004,18.2717884 4.78787729,18.301039 C4.92123948,18.3244394 5.06619838,18.4004908 5.11838358,18.4999426 C5.17056878,18.5935443 5.17636714,18.6695956 5.11258523,18.7514971 C4.96182797,18.9328504 4.4051858,18.9035999 4.16165485,18.8626491 C3.90652719,18.8216984 3.58761761,18.745647 3.52963405,18.5174929 C3.46005378,18.2542381 3.58761761,17.9968335 3.7209798,17.7569791 C3.99350253,17.2772704 4.37619402,17.031566 4.9444329,16.8736131 C5.75040438,16.6513091 6.76511667,16.4933563 7.51890294,16.4641057 C9.2352163,16.3997546 10.858756,16.7039601 12.5228841,17.2129193 C13.4738145,17.5054246 14.720461,17.9909834 15.6366013,18.4355914 C16.2918155,18.7514971 17.3239228,19.3423578 17.9037584,19.7226147 C18.0893058,19.8454669 19.1562033,20.6352312 19.3243556,20.7756338 C19.672257,21.062289 20.1245287,21.4717964 20.455035,21.7994023 C21.0928542,22.4370638 21.8814306,23.4081814 22.2641221,24.1803954 C22.3568958,24.3675988 22.4264761,24.5489521 22.5482415,24.7595559 C22.58883,24.8356072 22.7627807,25.2743652 22.7917725,25.3972174 C22.8207643,25.5200696 22.8613527,25.707273 22.8671511,25.7131231 C22.8671511,25.8008747 22.9541264,26.1752815 22.9425297,26.3215341 M44.5356072,25.3328662 C43.7296358,25.5200696 41.6190342,25.6253715 41.6190342,25.6253715 L41.3523098,26.4677868 C41.3523098,26.4677868 42.4076106,26.3741851 43.178792,26.4560866 C43.178792,26.4560866 43.4281213,26.426836 43.457113,26.7427418 C43.4687097,27.035247 43.4339196,27.3511528 43.4339196,27.3511528 C43.4339196,27.3511528 43.4165245,27.5442063 43.1498002,27.5910071 C42.8598824,27.637808 40.8710463,27.7197094 40.8710463,27.7197094 L40.5463384,28.8195293 C40.5463384,28.8195293 40.4245729,29.0710839 40.6970956,29.0008826 C40.9464249,28.9365315 43.0280347,28.5387243 43.3005574,28.5972253 C43.5904752,28.6674266 43.9151832,29.0593837 43.8224095,29.4162401 C43.7122407,29.8608482 41.6306309,31.1946723 40.3665893,31.1010706 C40.3665893,31.1010706 39.6997784,31.1420214 39.1373379,30.2411051 C38.6154858,29.3752894 39.334482,27.7431099 39.334482,27.7431099 C39.334482,27.7431099 39.0039757,26.9825961 39.2417083,26.7193413 C39.2417083,26.7193413 39.3866672,26.590639 39.7983504,26.5613885 L40.3086058,25.4966692 C40.3086058,25.4966692 39.7287702,25.5376199 39.3808688,25.1047121 C39.0619592,24.6952047 39.0329675,24.5080013 39.2764984,24.3968493 C39.5374244,24.268147 41.9553388,23.8176888 43.619467,23.8761899 C43.619467,23.8761899 44.1993026,23.8176888 44.6979612,24.8297571 C44.7037596,24.823907 44.9472905,25.2334144 44.5356072,25.3328662 M38.2791812,29.4220902 C38.064642,29.9251994 37.5022015,30.4692592 36.8006004,30.1299531 C36.1105961,29.796497 35.0089084,27.5208058 35.0089084,27.5208058 C35.0089084,27.5208058 34.5914268,26.6725405 34.5102498,26.6959409 C34.5102498,26.6959409 34.4174761,26.5321379 34.3652909,27.4564547 C34.3073074,28.3807714 34.3768876,30.1767539 34.0115912,30.457559 C33.6636899,30.7383641 33.2462082,30.6272121 33.0316691,30.2996061 C32.834525,29.9720002 32.753348,29.1997862 32.8577184,27.8367116 C32.9852822,26.4736369 33.2983934,25.0169605 33.69848,24.5665024 C34.0985666,24.1160442 34.4232745,24.4436501 34.54504,24.5606523 C34.54504,24.5606523 35.0784887,25.0520612 35.9656372,26.4911872 L36.1221928,26.7602921 C36.1221928,26.7602921 36.9281643,28.1233667 37.0093412,28.1175166 C37.0093412,28.1175166 37.0731231,28.1818678 37.1311067,28.135067 C37.218082,28.1116665 37.1832919,27.6729086 37.1832919,27.6729086 C37.1832919,27.6729086 37.0151396,26.1928318 36.2845467,23.6772863 C36.2845467,23.6772863 36.174378,23.3613806 36.2497566,23.0688753 C36.3251352,22.7705199 36.6208514,22.9109224 36.6208514,22.9109224 C36.6208514,22.9109224 37.7573292,23.4900829 38.308173,25.3562667 C38.8648151,27.2283005 38.4937204,28.9072809 38.2791812,29.4220902 M50.5079139,28.2988699 C49.9918602,29.2114864 48.5306745,31.118621 46.5882252,30.6681628 C45.9446077,32.2359912 45.411159,33.8213699 45.0980478,36.1965129 C45.0980478,36.1965129 45.0284675,36.6586712 44.6515744,36.4948683 C44.2746812,36.3603158 43.6542571,35.7285044 43.5266933,34.8568386 C43.3933311,33.7102179 43.8977881,31.7679827 44.9356938,29.5449425 C44.6341793,29.0476835 44.4254385,28.3398207 44.6051875,27.3336024 C44.6051875,27.3336024 44.8661135,25.4615686 46.7273858,23.7767381 C46.7273858,23.7767381 46.9477233,23.5836846 47.0810855,23.6421856 C47.2260444,23.7006867 47.1564641,24.3090977 47.0462954,24.6074531 C46.9303282,24.8999584 46.1011633,26.3507847 46.1011633,26.3507847 C46.1011633,26.3507847 45.5851097,27.3277523 45.7300686,28.0999663 C46.7041924,26.5847889 48.9249627,23.5310336 50.3049714,24.490451 C50.7688399,24.823907 50.9775807,25.5493202 50.9775807,26.3332343 C50.9775807,27.0235468 50.8152267,27.7548101 50.5079139,28.2988699 M50.1078273,25.9003265 C50.1078273,25.9003265 50.0324487,25.2977656 49.4468147,25.9588276 C48.9423578,26.5204377 48.0378142,27.5676067 47.3130197,28.9950325 C48.0784027,28.9072809 48.8147939,28.4919234 49.0409298,28.2754695 C49.4004279,27.9537137 50.2411895,27.0761978 50.1078273,25.9003265 M56.9382906,21.9164044 C57.0658544,21.9164044 57.1760232,22.004156 57.1992166,22.1328583 C57.4311508,23.3555305 57.5761097,24.5431019 57.64569,25.7657741 L57.64569,25.7657741 L61.2000822,25.7657741 C61.3624362,25.7657741 61.49,25.8944764 61.49,26.0465792 L61.49,26.0465792 L61.49,26.7953927 C61.49,26.9591957 61.3566378,27.087898 61.2000822,27.087898 L61.2000822,27.087898 L57.6978752,27.087898 C57.7036736,27.2692513 57.7036736,27.4389044 57.7036736,27.5910071 C57.7036736,28.690827 57.6572867,29.5858932 57.5529163,30.5921114 C57.5413196,30.7442142 57.4195541,30.8553662 57.2687969,30.8553662 L57.2687969,30.8553662 L56.5092123,30.8553662 C56.4338336,30.8553662 56.3642534,30.8261157 56.3120681,30.7676146 C56.2598829,30.7091135 56.2366895,30.6330622 56.2424879,30.5570108 C56.3468583,29.5566427 56.3932451,28.6732767 56.3932451,27.5968572 C56.3932451,27.4447545 56.3874468,27.2751014 56.3874468,27.0937481 L56.3874468,27.0937481 L52.9142316,27.0937481 C52.7518776,27.0937481 52.6243138,26.9591957 52.6243138,26.8012428 L52.6243138,26.8012428 L52.6243138,26.0641295 C52.6243138,25.9003265 52.7518776,25.7716242 52.9142316,25.7716242 L52.9142316,25.7716242 L56.3352616,25.7716242 C56.2656813,24.5606523 56.114924,23.3906311 55.8829898,22.2089097 C55.8713931,22.1328583 55.8887882,22.0626571 55.935175,22.004156 C55.9815619,21.951505 56.0511421,21.9164044 56.1207224,21.9164044 L56.1207224,21.9164044 Z M33.9919718,4.94 C38.9570725,4.94 43.7367785,6.42605265 47.8212546,9.23498353 C51.8072397,11.9856378 54.8662516,15.8085811 56.6796431,20.2900497 C56.708611,20.3716369 56.7028174,20.4648794 56.6506751,20.540639 C56.5985329,20.6105709 56.5174227,20.6571921 56.430519,20.6571921 L56.430519,20.6571921 L55.6715596,20.6571921 C55.5383072,20.6571921 55.416642,20.5756049 55.3644997,20.4532241 C53.6032505,16.2806214 50.7006654,12.731578 46.9580107,10.1907194 C43.1226587,7.58575648 38.6384255,6.20460166 33.9919718,6.20460166 C30.1450327,6.20460166 26.3328551,7.17782046 22.9725769,9.00770489 C19.7165832,10.7793128 16.8893147,13.3493097 14.8036248,16.4321405 C14.7398954,16.5312107 14.6240237,16.5894872 14.5081521,16.5894872 C14.467597,16.5894872 14.4328355,16.5836596 14.3922804,16.5720043 L14.3922804,16.5720043 L13.7549863,16.3563809 C13.6738761,16.3272426 13.6043531,16.2631384 13.5753852,16.1757235 C13.5464173,16.0883087 13.5580044,15.9950662 13.6101467,15.9193066 C18.163903,9.04267084 25.7824647,4.94 33.9919718,4.94 Z" id="Shape"></path>
            </g>
        </g>
    </g>
</svg>