<?xml version="1.0" encoding="utf-8"?>
<!-- Generator: Adobe Illustrator 25.2.1, SVG Export Plug-In . SVG Version: 6.00 Build 0)  -->
<svg version="1.1" id="Layer_1" xmlns="http://www.w3.org/2000/svg" xmlns:xlink="http://www.w3.org/1999/xlink" x="0px" y="0px"
	 viewBox="0 0 85 48" style="enable-background:new 0 0 85 48;" xml:space="preserve">
<style type="text/css">
	.st0{fill-rule:evenodd;clip-rule:evenodd;fill:#001D2F;fill-opacity:0.05;}
	.st1{fill:#001D2F;}
</style>
<g id="_xD83D__xDCDD_-Dev-note">
	<g id="Export-icon-array-logos" transform="translate(-439.000000, -186.000000)">
		<g id="hulu-logo" transform="translate(439.000000, 186.000000)">
			<path id="Box" class="st0" d="M5,0h75c2.761,0,5,2.239,5,5v38c0,2.761-2.239,5-5,5H5c-2.761,0-5-2.239-5-5V5C0,2.239,2.239,0,5,0
				z"/>
		</g>
	</g>
</g>
<g>
	<path class="st1" d="M27.77,17.871c-1.849-0.002-3.074,0.972-3.246,2.43c-0.04,0.337-0.082,0.674-0.124,1.01h24.063
		c0,0,0.045-0.355,0.08-0.64c0.181-1.468-0.443-2.8-2.712-2.8v0C45.83,17.871,28.745,17.872,27.77,17.871z M13.085,17.871
		l-0.422,3.44h10.912l0.421-3.44L13.085,17.871L13.085,17.871L13.085,17.871z M49.716,17.871l-0.421,3.44h11.83
		c0,0,0.014-0.124,0.067-0.529c0.288-2.258-1.169-2.911-2.575-2.911H49.716z M49.131,22.621l-0.922,7.507l4.081-0.001l0.923-7.504
		L49.131,22.621L49.131,22.621L49.131,22.621z M56.885,22.621l-0.923,7.507l4.081-0.001l0.923-7.504L56.885,22.621L56.885,22.621
		L56.885,22.621z M12.503,22.622l-0.923,7.507h10.912l0.402-3.257l-6.833-0.001l0.173-1.404h6.83l0.35-2.845L12.503,22.622
		C12.504,22.622,12.503,22.622,12.503,22.622z M24.239,22.622c-0.299,1.959,0.681,2.845,2.071,2.845
		c0.756,0,5.521-0.002,5.521-0.002l-0.172,1.406l-7.941,0.001l-0.4,3.257c0,0,8.645,0.003,8.996,0c0.289-0.021,2.312-0.076,3-1.73
		c0.223-0.537,0.421-2.462,0.476-2.867c0.318-2.348-1.307-2.907-2.587-2.907C32.497,22.624,25.633,22.622,24.239,22.622z
		 M36.942,22.622l-0.922,7.507H40.1l0.574-4.661h5.124c1.453,0,2.234-0.781,2.379-1.83c0.046-0.338,0.088-0.676,0.126-1.015
		L36.942,22.622C36.942,22.622,36.942,22.622,36.942,22.622z"/>
	<polygon class="st1" points="73.42,22.471 64.078,22.471 63.711,25.474 73.054,25.474 	"/>
	<polygon class="st1" points="67.509,19.407 66.381,28.61 69.605,28.61 70.734,19.407 	"/>
</g>
</svg>
