<?xml version="1.0" encoding="UTF-8"?>
<svg width="85px" height="48px" viewBox="0 0 85 48" version="1.1" xmlns="http://www.w3.org/2000/svg" xmlns:xlink="http://www.w3.org/1999/xlink">
    <title>bbc-iplayer-logo</title>
    <g id="bbc-iplayer-logo" stroke="none" stroke-width="1" fill="none" fill-rule="evenodd">
        <g id="Logo-1" fill="#001D2F">
            <rect id="Box" fill-opacity="0.05" x="0" y="0" width="85" height="48" rx="5"></rect>
            <g id="Logo-1" transform="translate(10.000000, 3.000000)">
                <path d="M33.5028284,15.4566364 L35.8556279,17.5906364 L35.8560654,15.4566364 L38.3903206,15.4566364 C40.2949471,15.4566364 41.3990785,16.0696522 41.8347303,17.2157254 L41.8900063,17.3753046 L41.920176,17.3753046 L41.920176,15.4566364 L43.9415462,15.4566364 L43.9415462,20.8471806 L43.9717159,20.8471806 C44.5147706,19.8726189 45.902577,19.7203436 46.7774984,19.7203436 C47.0791955,19.7203436 47.4412319,19.7507987 47.7127593,19.8117088 C47.6825896,18.9894224 47.0791955,18.776237 46.3551226,18.776237 C45.5103708,18.776237 44.8466373,19.0503325 44.3337524,19.2939729 C44.2432432,19.354883 44.1829038,19.2635179 44.2130735,19.2026078 C44.2191075,19.1904257 44.2420365,19.1246428 44.2748611,19.0271867 L44.3960226,18.661726 C44.5328724,18.2451009 44.6957888,17.7407653 44.6957888,17.7407653 C45.4500314,17.5275799 45.902577,17.4057597 46.7774984,17.4057597 C47.6459549,17.4057597 48.4363704,17.6158374 48.9555004,18.1579129 L49.070396,18.2889562 L49.1005657,18.2889562 L48.7988686,17.5580349 L51.0012571,17.5580349 L52.2985544,21.4867366 L52.3287241,21.4867366 L53.5355123,17.5580349 L55.5568825,17.5580349 L55.1345066,18.6239618 C55.707731,17.8625855 56.6429918,17.4362147 57.7592709,17.4362147 C59.3176017,17.4362147 60.1582472,18.2442811 60.5188355,19.3806623 L60.5650534,19.5376133 L60.5952231,19.5376133 L60.5952231,17.5580349 L62.4355751,17.5580349 L62.4355751,18.6544168 L62.4657448,18.6544168 C62.8277813,17.8930405 63.4613451,17.4057597 64.3362665,17.4057597 C64.5474544,17.4057597 64.7586424,17.4362147 64.9396606,17.4666698 C64.9849151,17.4895111 64.9962288,17.5123524 64.9990572,17.5480419 L65,17.58849 L64.5474544,19.1721527 C64.5474544,19.1721527 64.3966059,19.1112426 64.2155877,19.1112426 C63.470396,19.1112426 62.8068887,19.6334706 62.742401,20.8084836 L62.7372722,20.9994558 L62.7372722,23.5576802 L60.7159019,23.5576802 L60.7159019,21.1517311 L56.7636706,21.1517311 C56.8541798,21.9740175 57.4877436,22.309023 58.4833438,22.309023 C59.1470773,22.309023 59.7203017,22.0349276 60.2331867,21.7608321 C60.2935261,21.699922 60.3840352,21.7608321 60.3538655,21.8521973 C60.2633564,22.1262927 59.8409805,23.3749499 59.8409805,23.3749499 C59.3280955,23.5576802 58.6945317,23.6795004 58.0911376,23.6795004 C56.1301069,23.6795004 54.6517913,22.4917534 54.6517913,20.512175 C54.6517913,20.3700514 54.6517913,20.2414634 54.6607305,20.1173873 L54.681961,19.933529 L54.6517913,19.933529 L53.4148334,23.1313094 C52.9019485,24.4713317 52.1477058,26.39 50.4280327,26.39 C49.7089881,26.39 49.0406453,26.1852744 48.7018647,26.0338627 L48.6178504,25.9940843 L49.1005657,24.4713317 C49.1307354,24.4104216 49.1609051,24.3799666 49.2212445,24.4104216 C49.5229415,24.5626969 49.7341295,24.623607 50.0961659,24.623607 C50.8881207,24.623607 51.1762649,23.7938258 51.2091894,23.6901031 L51.212445,23.6795004 L49.583281,19.5071583 L49.5531113,19.5071583 C49.5732244,19.5883717 49.5799288,19.6695852 49.5821636,19.7507987 L49.583281,19.8726189 L49.583281,22.1262927 C49.583281,22.4917534 49.6002514,22.840083 49.6469202,23.1969782 L49.7039598,23.5576802 L47.8334381,23.5576802 C47.8334381,23.43586 47.8032684,23.2531297 47.8032684,23.0703993 C47.8032684,23.0094892 47.7730987,23.0399443 47.7127593,23.0703993 C47.5015713,23.2226746 46.928347,23.7404105 45.902577,23.7099554 C45.1181647,23.6816757 44.3857797,23.4433183 43.9952887,22.8729631 L43.9113765,22.7353938 L43.8812068,22.7353938 L43.8812068,23.5881352 L41.8598366,23.5881352 L41.8598366,19.0503325 L41.8296669,19.0503325 C41.512885,20.184091 40.5088696,20.9293589 39.0012996,20.994768 L38.7825267,20.9994558 L37.9679447,20.9994558 L37.9679447,23.5881352 L35.8560654,23.5881352 L35.8556279,21.4366364 L33.5028284,23.5881352 L31.5116279,23.5881352 L31.5116279,18.5021416 L33.5028284,18.5021416 L33.5028284,22.4003882 L36.7309868,19.5071583 L33.5028284,16.6443834 L33.5028284,17.4971248 L31.5116279,17.4971248 L31.5116279,15.4566364 L33.5028284,15.4566364 Z M18.2493281,15.34 L18.2493281,23.3879095 L9.77384965,23.3879095 L9.77384965,15.34 L18.2493281,15.34 Z M8.47555651,15.34 L8.47555651,23.3879095 L2.36468622e-13,23.3879095 L2.36468622e-13,15.34 L8.47555651,15.34 Z M28.0232558,15.34 L28.0232558,23.3879095 L19.5476213,23.3879095 L19.5476213,15.34 L28.0232558,15.34 Z M24.7062444,16.4282671 C23.6200711,16.3246696 23.0157594,16.5578132 23.0157594,16.5578132 C20.9652196,17.1917816 20.8310633,18.981431 20.8239313,19.3114182 L20.8238151,19.3640708 C20.8879624,21.4126855 22.5850573,22.0374127 22.5850573,22.0374127 C24.6034678,22.8405615 26.3456089,21.7979165 26.3456089,21.7979165 L26.3456089,21.7979165 L26.3456089,20.6901691 C25.0470469,21.5257337 24.0892485,21.4092387 24.0892485,21.4092387 C22.0282264,21.3097543 21.8916724,19.7215012 21.8845446,19.4150291 L21.8845029,19.3640708 C21.9745075,17.4009203 23.8393789,17.3065122 24.0876284,17.3026496 L24.1148445,17.3025598 C25.259054,17.3156124 26.2940677,17.9567992 26.2940677,17.9567992 L26.2940677,17.9567992 L26.2940677,16.8880885 C25.3555633,16.4930208 24.7062834,16.428228 24.7062444,16.4282671 Z M46.8076681,20.8776356 C46.1137649,20.8776356 45.5707102,21.090821 45.5707102,21.669467 C45.5707102,22.0958377 45.9327467,22.3394781 46.415462,22.3394781 C47.1998743,22.3394781 47.6825896,21.6085569 47.6524199,20.9080907 C47.4110622,20.9080907 47.1093652,20.8776356 46.8076681,20.8776356 Z M14.0149144,16.4735404 L12.0013839,16.4735404 L12.0013839,22.2575839 L14.3090947,22.2575839 C14.3090947,22.2575839 16.2374907,22.2640515 16.2374907,20.6252606 L16.2375979,20.6012283 C16.2351531,20.437405 16.1695504,19.4824804 14.9840118,19.1809247 C14.9840118,19.1809247 15.7231934,18.8636229 15.7168892,18.0215138 C15.7168892,18.0215138 15.8291178,16.6419316 14.0149144,16.4735404 Z M4.24114063,16.4735404 L2.22749736,16.4735404 L2.22749736,22.2575839 L4.53524501,22.2575839 C4.53524501,22.2575839 6.46360202,22.2640515 6.46360202,20.6252606 L6.46371698,20.6012283 C6.46129169,20.437405 6.39563489,19.4824804 5.21020118,19.1809247 C5.21020118,19.1809247 5.94934371,18.8636229 5.94296366,18.0215138 C5.94296366,18.0215138 6.0554242,16.6419316 4.24114063,16.4735404 Z M14.1032769,19.7831899 C15.2155449,19.7768376 15.1831829,20.541065 15.1831829,20.541065 C15.1831829,21.3642205 14.2265879,21.366534 14.1140474,21.3639579 L13.0234077,21.3636168 L13.0234077,19.7831899 L14.1032769,19.7831899 Z M4.3295031,19.7831899 C5.32448467,19.7775062 5.40346477,20.3887133 5.40906743,20.5174515 L5.4093701,20.541065 L5.4093701,20.541065 C5.4093701,21.3642205 4.45280971,21.366534 4.34027319,21.3639579 L3.24955805,21.3636168 L3.24955805,19.7831899 L4.3295031,19.7831899 Z M57.7291012,18.745782 C57.0532998,18.745782 56.6928724,19.2233172 56.6232899,19.8564935 L56.6128221,19.9944391 L58.8453803,19.9944391 C58.8453803,19.324428 58.5436832,18.745782 57.7291012,18.745782 Z M38.5109994,17.009844 L37.9679447,17.009844 L37.9679447,19.4462482 L38.5109994,19.4462482 C39.2350723,19.4462482 39.8082967,19.0807875 39.8082967,18.2280461 C39.8082967,17.4057597 39.2350723,17.009844 38.5109994,17.009844 Z M4.07237394,17.3738202 C4.92728085,17.4192099 4.89515082,18.0602803 4.89515082,18.0602803 C4.89515082,18.8570784 3.95026637,18.8700523 3.95026637,18.8700523 L3.24959707,18.8700523 L3.24959707,17.3738202 L4.07237394,17.3738202 Z M13.8462236,17.3738202 C14.5942671,17.4135362 14.6630535,17.9093202 14.6685619,18.0326456 L14.6688444,18.0602803 L14.6688444,18.0602803 C14.6688444,18.8570784 13.724116,18.8700523 13.724116,18.8700523 L13.0234077,18.8700523 L13.0234077,17.3738202 L13.8462236,17.3738202 Z" id="Logo"></path>
            </g>
        </g>
    </g>
</svg>