<svg width="86" height="48" viewBox="0 0 86 48" fill="none" xmlns="http://www.w3.org/2000/svg">
<g clip-path="url(#clip0_1_2)">
<path d="M80.8348 0H5.16516C2.31252 0 0 2.29843 0 5.13369V42.8663C0 45.7016 2.31252 48 5.16516 48H80.8348C83.6875 48 86 45.7016 86 42.8663V5.13369C86 2.29843 83.6875 0 80.8348 0Z" fill="#001D2F" fill-opacity="0.05"/>
<path d="M21.5189 22.7579V11.1852H26.1151C26.9986 11.1852 27.7511 11.3528 28.3733 11.6881C28.9952 12.0196 29.4691 12.4811 29.7953 13.0725C30.125 13.6602 30.2901 14.3383 30.2901 15.1068C30.2901 15.8753 30.1232 16.5534 29.7896 17.1411C29.4559 17.7287 28.9724 18.1865 28.3389 18.5142C27.7096 18.8419 26.9474 19.0058 26.0523 19.0058H23.1229V17.045H25.6542C26.1282 17.045 26.5187 16.964 26.8261 16.802C27.137 16.6363 27.3681 16.4084 27.52 16.1183C27.6755 15.8244 27.7532 15.4873 27.7532 15.1068C27.7532 14.7225 27.6755 14.3873 27.52 14.101C27.3681 13.8109 27.137 13.5867 26.8261 13.4285C26.5151 13.2666 26.1208 13.1855 25.6428 13.1855H23.9819V22.7579H21.5189Z" fill="black"/>
<path d="M31.8445 22.7579V14.0784H34.1936V15.5928H34.2846C34.4439 15.0541 34.7112 14.6472 35.0867 14.3722C35.4622 14.0934 35.8945 13.9541 36.3837 13.9541C36.5051 13.9541 36.6357 13.9616 36.776 13.9766C36.9165 13.9917 37.0397 14.0125 37.1458 14.0388V16.1748C37.0322 16.1409 36.8746 16.1108 36.6737 16.0844C36.4728 16.058 36.2889 16.0448 36.1221 16.0448C35.7654 16.0448 35.447 16.122 35.1662 16.2765C34.8894 16.4272 34.6696 16.6382 34.5064 16.9094C34.3473 17.1806 34.2675 17.4933 34.2675 17.8474V22.7579H31.8445Z" fill="black"/>
<path d="M38.3986 22.7579V14.0784H40.8219V22.7579H38.3986ZM39.616 12.9595C39.2558 12.9595 38.9466 12.8409 38.6886 12.6035C38.4348 12.3624 38.3077 12.0743 38.3077 11.739C38.3077 11.4075 38.4348 11.123 38.6886 10.8857C38.9466 10.6446 39.2558 10.5241 39.616 10.5241C39.9763 10.5241 40.2834 10.6446 40.5375 10.8857C40.7953 11.123 40.9241 11.4075 40.9241 11.739C40.9241 12.0743 40.7953 12.3624 40.5375 12.6035C40.2834 12.8409 39.9763 12.9595 39.616 12.9595Z" fill="black"/>
<path d="M42.7629 22.7579V14.0784H45.0723V15.6097H45.1748C45.3569 15.1012 45.6601 14.7 46.0849 14.4061C46.5095 14.1123 47.0177 13.9654 47.6094 13.9654C48.2086 13.9654 48.7186 14.1142 49.1396 14.4118C49.5603 14.7056 49.841 15.1049 49.9812 15.6097H50.0724C50.2506 15.1125 50.5729 14.715 51.0393 14.4174C51.5096 14.1161 52.0651 13.9654 52.7059 13.9654C53.5212 13.9654 54.1831 14.2234 54.6911 14.7395C55.203 15.2518 55.4592 15.9789 55.4592 16.9207V22.7579H53.0416V17.3954C53.0416 16.9131 52.9127 16.5515 52.6547 16.3104C52.397 16.0693 52.0747 15.9488 51.6878 15.9488C51.248 15.9488 50.9048 16.0881 50.6581 16.3669C50.4118 16.6419 50.2886 17.0054 50.2886 17.4575V22.7579H47.9392V17.3445C47.9392 16.9188 47.816 16.5798 47.5696 16.3274C47.3269 16.075 47.0064 15.9488 46.6081 15.9488C46.339 15.9488 46.0963 16.0166 45.8801 16.1522C45.6678 16.284 45.4989 16.4705 45.3739 16.7116C45.2487 16.949 45.1862 17.2277 45.1862 17.5479V22.7579H42.7629Z" fill="black"/>
<path d="M61.3549 22.9274C60.4562 22.9274 59.6825 22.7466 59.0342 22.3849C58.3894 22.0195 57.8927 21.5034 57.5438 20.8366C57.1949 20.1661 57.0206 19.3731 57.0206 18.4577C57.0206 17.5649 57.1949 16.7813 57.5438 16.107C57.8927 15.4327 58.3837 14.9072 59.0169 14.5304C59.654 14.1537 60.4012 13.9654 61.2581 13.9654C61.8345 13.9654 62.3712 14.0577 62.8681 14.2422C63.3686 14.4231 63.8045 14.6962 64.1761 15.0616C64.5517 15.427 64.8437 15.8866 65.0522 16.4404C65.2608 16.9904 65.3652 17.6346 65.3652 18.3729V19.0341H57.9875V17.5423H63.0842C63.0842 17.1957 63.0083 16.8887 62.8567 16.6212C62.7048 16.3537 62.4944 16.1447 62.2253 15.994C61.9598 15.8395 61.6506 15.7623 61.2981 15.7623C60.9301 15.7623 60.6042 15.8471 60.3196 16.0166C60.0391 16.1823 59.8191 16.4065 59.6597 16.689C59.5006 16.9678 59.419 17.2786 59.4152 17.6214V19.0397C59.4152 19.4692 59.495 19.8402 59.654 20.1529C59.8173 20.4656 60.0466 20.7067 60.3423 20.8762C60.6383 21.0457 60.989 21.1305 61.3947 21.1305C61.6641 21.1305 61.9104 21.0928 62.1341 21.0175C62.358 20.9421 62.5494 20.8291 62.7087 20.6784C62.8681 20.5277 62.9892 20.3431 63.0729 20.1247L65.3138 20.2716C65.2001 20.8065 64.9669 21.2736 64.6142 21.6729C64.2652 22.0685 63.8141 22.3774 63.2604 22.5997C62.7105 22.8182 62.0755 22.9274 61.3549 22.9274Z" fill="black"/>
<path d="M23.3967 25.7336L26.2124 34.5264H26.3204L29.1419 25.7336H31.8722L27.8563 37.3065H24.6822L20.6607 25.7336H23.3967Z" fill="black"/>
<path d="M33.2288 37.3065V28.627H35.652V37.3065H33.2288ZM34.446 27.5081C34.0857 27.5081 33.7768 27.3893 33.5188 27.1521C33.2647 26.9111 33.1379 26.6228 33.1379 26.2876C33.1379 25.9559 33.2647 25.6715 33.5188 25.4342C33.7768 25.1931 34.0857 25.0726 34.446 25.0726C34.8062 25.0726 35.1136 25.1931 35.3674 25.4342C35.6254 25.6715 35.7543 25.9559 35.7543 26.2876C35.7543 26.6228 35.6254 26.9111 35.3674 27.1521C35.1136 27.3893 34.8062 27.5081 34.446 27.5081Z" fill="black"/>
<path d="M40.8126 37.4477C40.1491 37.4477 39.5479 37.2783 39.0094 36.9392C38.4748 36.5963 38.05 36.0934 37.7352 35.4304C37.4242 34.7636 37.2687 33.946 37.2687 32.9781C37.2687 31.9834 37.4299 31.1566 37.7525 30.4972C38.0748 29.8342 38.5032 29.3388 39.0378 29.0113C39.5763 28.6796 40.1661 28.5138 40.8069 28.5138C41.296 28.5138 41.7038 28.5967 42.03 28.7625C42.3598 28.9245 42.6253 29.128 42.8262 29.3729C43.031 29.6139 43.1865 29.8511 43.2926 30.0847H43.3667V25.7336H45.784V37.3065H43.3951V35.9163H43.2926C43.179 36.1573 43.0178 36.3966 42.8092 36.634C42.6044 36.8676 42.3371 37.0616 42.0073 37.2159C41.6811 37.3704 41.2828 37.4477 40.8126 37.4477ZM41.5806 35.5321C41.9711 35.5321 42.3009 35.4266 42.5703 35.2156C42.8432 35.001 43.0519 34.7014 43.196 34.3172C43.3437 33.9329 43.4179 33.4827 43.4179 32.9668C43.4179 32.4506 43.3458 32.0021 43.2017 31.6217C43.0576 31.2413 42.8489 30.9474 42.5759 30.7403C42.303 30.5331 41.9711 30.4294 41.5806 30.4294C41.1824 30.4294 40.8466 30.5367 40.5737 30.7516C40.3007 30.9664 40.0941 31.2639 39.9536 31.6443C39.8134 32.025 39.7431 32.4657 39.7431 32.9668C39.7431 33.4714 39.8134 33.9178 39.9536 34.3059C40.0977 34.6901 40.3046 34.9915 40.5737 35.2099C40.8466 35.4248 41.1824 35.5321 41.5806 35.5321Z" fill="black"/>
<path d="M51.7581 37.4759C50.8593 37.4759 50.0858 37.2952 49.4373 36.9336C48.7927 36.568 48.2958 36.0519 47.9469 35.3852C47.5983 34.7145 47.4237 33.9216 47.4237 33.0063C47.4237 32.1133 47.5983 31.3299 47.9469 30.6556C48.2958 29.9813 48.7871 29.4556 49.4203 29.079C50.0574 28.7022 50.8043 28.5138 51.6615 28.5138C52.2379 28.5138 52.7746 28.6062 53.2712 28.7908C53.7717 28.9715 54.2079 29.2448 54.5795 29.6101C54.955 29.9756 55.2469 30.4351 55.4555 30.989C55.664 31.5388 55.7683 32.1831 55.7683 32.9213V33.5825H48.3906V32.0907H53.4874C53.4874 31.7442 53.4114 31.4372 53.2598 31.1697C53.1082 30.9022 52.8977 30.6933 52.6284 30.5424C52.3629 30.3881 52.054 30.3108 51.7012 30.3108C51.3335 30.3108 51.0073 30.3956 50.723 30.5652C50.4422 30.7308 50.2225 30.9551 50.0631 31.2375C49.9038 31.5162 49.8221 31.8271 49.8185 32.17V33.5882C49.8185 34.0176 49.8981 34.3888 50.0574 34.7014C50.2204 35.0141 50.45 35.2551 50.7457 35.4248C51.0414 35.5942 51.3921 35.6789 51.7981 35.6789C52.0672 35.6789 52.3138 35.6414 52.5375 35.5659C52.7611 35.4907 52.9528 35.3775 53.1118 35.2269C53.2712 35.0762 53.3926 34.8916 53.476 34.6732L55.7172 34.82C55.6035 35.355 55.3701 35.8221 55.0175 36.2215C54.6686 36.6171 54.2174 36.9259 53.6637 37.1482C53.1139 37.3666 52.4786 37.4759 51.7581 37.4759Z" fill="black"/>
<path d="M61.2973 37.4759C60.4138 37.4759 59.6497 37.2896 59.005 36.9166C58.364 36.5398 57.8692 36.0162 57.5203 35.3457C57.1714 34.6714 56.9971 33.8895 56.9971 33.0006C56.9971 32.104 57.1714 31.3204 57.5203 30.6499C57.8692 29.9756 58.364 29.452 59.005 29.079C59.6497 28.7022 60.4138 28.5138 61.2973 28.5138C62.1808 28.5138 62.9432 28.7022 63.584 29.079C64.2286 29.452 64.7255 29.9756 65.0744 30.6499C65.4233 31.3204 65.5976 32.104 65.5976 33.0006C65.5976 33.8895 65.4233 34.6714 65.0744 35.3457C64.7255 36.0162 64.2286 36.5398 63.584 36.9166C62.9432 37.2896 62.1808 37.4759 61.2973 37.4759ZM61.3087 35.6111C61.7106 35.6111 62.0463 35.4982 62.3154 35.272C62.5848 35.0423 62.7875 34.7297 62.9241 34.3341C63.0643 33.9386 63.1346 33.4883 63.1346 32.9837C63.1346 32.4788 63.0643 32.0286 62.9241 31.633C62.7875 31.2375 62.5848 30.9248 62.3154 30.6951C62.0463 30.4654 61.7106 30.3504 61.3087 30.3504C60.903 30.3504 60.5616 30.4654 60.2847 30.6951C60.0117 30.9248 59.8051 31.2375 59.6649 31.633C59.5283 32.0286 59.4601 32.4788 59.4601 32.9837C59.4601 33.4883 59.5283 33.9386 59.6649 34.3341C59.8051 34.7297 60.0117 35.0423 60.2847 35.272C60.5616 35.4982 60.903 35.6111 61.3087 35.6111Z" fill="black"/>
</g>
<defs>
<clipPath id="clip0_1_2">
<rect width="86" height="48" fill="white"/>
</clipPath>
</defs>
</svg>
