<?xml version="1.0" encoding="UTF-8"?>
<svg width="85px" height="48px" viewBox="0 0 85 48" version="1.1" xmlns="http://www.w3.org/2000/svg" xmlns:xlink="http://www.w3.org/1999/xlink">
    <title>svg/itv-player-logo</title>
    <g id="ðŸ“-Dev-note" stroke="none" stroke-width="1" fill="none" fill-rule="evenodd">
        <g id="Export-icon-array-logos" transform="translate(-344.000000, -186.000000)" fill="#001D2F">
            <g id="itv-player-logo" transform="translate(344.000000, 186.000000)">
                <rect id="Box" fill-opacity="0.05" x="0" y="0" width="85" height="48" rx="5"></rect>
                <g id="Logo-1" transform="translate(10.000000, 3.000000)">
                    <path d="M61.8420097,17.7804155 C62.9266587,17.7804155 63.6936805,17.9052039 64.3061872,18.5021643 C64.6936525,18.8932938 64.9039139,19.4903254 64.9039139,20.2699215 C64.9039139,20.7964911 64.7936616,21.5294623 64.2113029,22.1250279 C63.8512309,22.5275415 63.1932045,22.7226327 63.1932045,22.7226327 L63.1932045,22.7226327 L64.8746885,25.3528503 C64.9840939,25.5136467 65,25.5732627 65,25.6476208 C65,25.7526454 64.8440281,25.87 64.1604585,25.87 C63.7537752,25.87 63.3776818,25.8417117 63.2088185,25.6678322 C63.1546032,25.6151323 63.0750651,25.4832324 62.9986314,25.3520455 L62.9986314,25.3520455 L61.5345374,22.8783011 L60.4199532,22.8783011 L60.4199532,25.4401996 C60.4199532,25.7651009 60.3275659,25.8671766 59.5872161,25.8671766 C58.8638012,25.8671766 58.7416683,25.7562555 58.7416683,25.4401996 L58.7416683,25.4401996 L58.7416683,17.7804155 Z M46.8582837,17.7804155 C47.1475938,18.4660683 47.7618403,19.6588906 48.6135263,21.2223178 L48.7032103,21.2223178 C48.8039965,21.0130967 48.8823576,20.8590811 48.9646159,20.6954717 L49.0601886,20.5039466 C49.2712849,20.0766435 49.5600415,19.4581601 50.279085,17.7804155 L52.1320037,17.7804155 C51.6193242,18.90691 50.9852704,20.2110934 49.4975536,22.8656321 L49.4975536,25.466468 C49.4975536,25.7454264 49.3661231,25.8695445 48.6713622,25.8695445 C47.9725578,25.8695445 47.8190817,25.7646843 47.8190817,25.4654199 L47.8190817,22.8762839 C46.5574457,20.8007232 45.9194408,19.6149319 45.4226065,18.6305566 L45.2069317,18.19886 C45.1371309,18.0579443 45.0688782,17.9192372 45.0005451,17.7804155 L46.8582837,17.7804155 Z M29.4949009,17.7804155 C30.429952,17.7804155 31.3773897,17.9170785 31.9728154,18.5523307 C32.4053033,19.027189 32.6106039,19.5640611 32.6106039,20.4584846 C32.6106039,21.2267354 32.4271759,21.9070079 31.9091487,22.4713829 C31.4688557,22.9263855 30.7045462,23.2020508 29.6742598,23.2020508 L29.6742598,23.2020508 L28.0599606,23.2020508 L28.0599606,25.5052865 C28.0599606,25.7860461 27.8071301,25.867592 27.227171,25.867592 C26.6515449,25.867592 26.3815861,25.8037913 26.3815861,25.5052865 L26.3815861,25.5052865 L26.3815861,17.7804155 Z M43.660112,17.7801761 C44.033126,17.7801761 44.1062167,17.8401325 44.215832,18.1756391 C44.3052373,18.4683991 44.3944557,18.7594182 44.4835765,19.0495198 L45.0178464,20.7857032 C45.4632884,22.2343224 45.9107633,23.7011611 46.3714493,25.2891195 C46.4139827,25.430055 46.4271014,25.4593733 46.4271014,25.5519527 C46.4271014,25.7870747 46.119662,25.8426873 45.5783071,25.8426873 C45.2102031,25.8426873 44.9034085,25.8319424 44.7487307,25.6813475 C44.6552038,25.5900232 44.6306667,25.474189 44.6001917,25.3695875 L44.6001917,25.3695875 L44.2398545,24.107988 L41.1457589,24.107988 L40.7634011,25.4666336 C40.7304975,25.5653425 40.6977922,25.6274585 40.6581026,25.6667906 C40.5586865,25.7659873 40.3617415,25.8426873 39.8125112,25.8426873 C39.3340853,25.8426873 38.9605139,25.8069187 38.9605139,25.5632747 C38.9605139,25.4257073 39.009395,25.2974965 39.0898349,25.0339697 C39.7910919,22.724835 40.4739397,20.3600592 41.1966065,18.115794 C41.2696096,17.8812568 41.3985409,17.7801761 41.7002779,17.7801761 L41.7002779,17.7801761 Z M35.1001871,17.7804155 L35.1001871,24.4313094 L38.4441165,24.4313094 L38.4441165,25.8028946 L33.7556802,25.8028946 C33.5254054,25.8028946 33.4218164,25.7046282 33.4218164,25.4503001 L33.4218164,17.7804155 L35.1001871,17.7804155 Z M57.9474529,17.7804155 L57.9474529,19.1649401 L54.2191639,19.1649401 L54.2191639,21.0282256 L57.4093494,21.0282256 L57.4093494,22.3998107 L54.2191639,22.3998107 L54.2191639,24.4313094 L58.0243249,24.4313094 L58.0243249,25.8028946 L52.8610929,25.8028946 C52.6247309,25.8028946 52.5407932,25.6810706 52.5407932,25.4794075 L52.5407932,18.1443113 C52.5407932,17.8908501 52.6148068,17.7804155 53.0020248,17.7804155 L57.9474529,17.7804155 Z M12.158657,25.6429191 C9.46704102,25.6429191 8.23989168,24.4277414 8.23989168,24.4277414 C8.23989168,24.4277414 6.96253029,25.6554404 4.64734233,25.6554404 C3.49822559,25.6554404 0.00833923459,25.4680284 0.00833923459,21.6720318 L0.00833923459,18.0458437 C0.00833923459,17.8967544 0.0924316405,17.7889866 0.260325534,17.7889866 L3.00161309,17.7889866 C3.14642878,17.7889866 3.24216341,17.9030909 3.24216341,18.0433281 L3.24216341,22.2214201 C3.24216341,22.9337706 3.65014981,23.7622517 4.90930645,23.7622517 C6.13559441,23.7622517 6.7699716,23.0036596 6.7699716,21.4548376 L6.7699716,15.2420429 C6.7699716,14.7611277 7.08211333,14.344378 8.38350581,14.344378 C9.80572825,14.344378 9.96179806,14.8947483 9.96179806,15.3076593 L9.96179806,17.7889866 L12.4816611,17.7889866 C12.6634818,17.7889866 12.7336474,17.8946471 12.7336474,18.0620615 L12.7336474,19.5426199 C12.7336474,19.6826204 12.6761953,19.7931389 12.5109083,19.7931389 L10.8437501,19.7931389 C10.4114235,19.7931389 9.96179806,19.6261263 9.96179806,19.6261263 L9.96179806,21.2545001 C9.96179806,22.660486 10.6478749,23.7422177 12.4231398,23.7422177 C14.0418905,23.7422177 15.1813188,22.8305413 15.1813188,21.4157993 C15.1813188,20.7891605 14.9154379,20.2753021 14.8470686,20.1535258 L14.6542899,19.8527821 C14.5238051,19.6100346 14.4243566,19.4628225 14.4243566,19.1745243 C14.4260365,18.7507592 14.6475194,18.4443603 15.398523,17.9765748 C15.560806,17.8705597 16.1456964,17.6394384 16.619602,17.6394384 C16.9350171,17.6394384 17.2108993,17.799623 17.4094401,18.1272779 L17.4093338,18.1275839 C17.4093338,18.1275839 17.4115458,18.1307902 17.4160336,18.1374082 L17.4363879,18.1677027 C17.5911397,18.3996973 18.4220102,19.6770212 20.2422062,23.0086553 C21.5342109,20.6731493 22.3581775,17.8823354 22.3581775,17.8823354 C22.4160281,17.6915664 22.5692278,17.6453807 22.7909896,17.7034898 L24.185607,18.132011 C24.3549334,18.1920847 24.4467979,18.2585891 24.3514522,18.5715955 C23.2541517,21.7463173 21.5694538,24.3951706 21.3905304,24.6722571 L21.3749988,24.6961796 L21.3749988,24.6961796 C21.0252864,25.2114196 20.6690487,25.6488426 19.4887923,25.6488426 C18.5365915,25.6488426 18.2049755,25.3264096 17.8733157,24.8342979 L16.8284247,23.2586525 C16.8284247,23.2586525 15.6056066,25.6429191 12.158657,25.6429191 Z M42.8537573,19.1262873 L42.5382621,19.1262873 C42.1821032,20.3520626 41.857521,21.54614 41.5237126,22.7493424 L41.5237126,22.7493424 L43.8554948,22.7493424 C43.5262536,21.5275486 43.1949314,20.3119256 42.8537573,19.1262873 L42.8537573,19.1262873 Z M29.571769,19.1649414 L28.0599606,19.1649414 L28.0599606,21.8304644 L29.3923935,21.8304644 C29.9679119,21.8304644 30.3166133,21.7278129 30.5394663,21.4952516 C30.7538288,21.2786693 30.865361,20.9206713 30.865361,20.51024 C30.865361,20.0553421 30.7713633,19.741077 30.535451,19.4957031 C30.3033247,19.2650206 29.9372285,19.1649414 29.571769,19.1649414 L29.571769,19.1649414 Z M61.970122,19.1648716 L60.4199532,19.1648716 L60.4199532,21.4938632 L61.9829339,21.4938632 C62.3810717,21.4938632 62.731272,21.3613901 62.9093523,21.1748416 C63.09739,20.9847373 63.1763888,20.6639106 63.1763888,20.2654729 C63.1763888,19.886905 63.1036538,19.6526784 62.900544,19.441431 C62.6858433,19.234297 62.3616282,19.1666572 61.970122,19.1648716 L61.970122,19.1648716 Z M1.6271996,13.52 C2.68318514,13.52 3.2493614,14.2719751 3.2493614,15.1552543 C3.2493614,16.1265918 2.53395634,16.7153822 1.63475625,16.7153822 C0.656074805,16.7153822 1.21218591e-13,16.0516942 1.21218591e-13,15.1126824 C1.21218591e-13,14.2367876 0.624187829,13.52 1.6271996,13.52 Z" id="itvPlayer-Logo"></path>
                </g>
            </g>
        </g>
    </g>
</svg>