<?xml version="1.0" encoding="utf-8"?>
<!-- Generator: Adobe Illustrator 25.2.1, SVG Export Plug-In . SVG Version: 6.00 Build 0)  -->
<svg version="1.1" id="Layer_1" xmlns="http://www.w3.org/2000/svg" xmlns:xlink="http://www.w3.org/1999/xlink" x="0px" y="0px"
	 viewBox="0 0 85 48" style="enable-background:new 0 0 85 48;" xml:space="preserve">
<style type="text/css">
	.st0{fill-rule:evenodd;clip-rule:evenodd;fill:#001D2F;fill-opacity:0.05;}
	.st1{fill:#001D2F;}
</style>
<g>
	<g id="bbc-iplayer-logo">
		<g id="Logo-1_1_">
			<path id="Box" class="st0" d="M5,0h75c2.761,0,5,2.239,5,5v38c0,2.761-2.239,5-5,5H5c-2.761,0-5-2.239-5-5V5C0,2.239,2.239,0,5,0
				z"/>
		</g>
	</g>
	<g>
		<g>
			<g>
				<path class="st1" d="M32.229,26.911V26.18c-0.324,0.457-0.781,0.823-1.496,0.823c-1.031,0-2.036-0.823-2.036-2.286
					s0.989-2.286,2.036-2.286c0.723,0,1.18,0.366,1.496,0.773v-2.361h1.006v6.068H32.229z M30.974,23.303
					c-0.69,0-1.263,0.532-1.263,1.413c0,0.864,0.582,1.413,1.263,1.413c0.673,0,1.272-0.557,1.272-1.413
					C32.246,23.86,31.648,23.303,30.974,23.303z"/>
				<path class="st1" d="M34.457,21.849v-0.956h1.081v0.956H34.457z M34.499,26.911v-4.389h1.006v4.389H34.499z"/>
				<path class="st1" d="M38.272,26.994c-0.623,0-1.313-0.224-1.862-0.657l0.449-0.682c0.474,0.357,0.989,0.54,1.438,0.54
					c0.432,0,0.682-0.183,0.682-0.474v-0.017c0-0.341-0.465-0.457-0.981-0.615c-0.648-0.183-1.371-0.449-1.371-1.288v-0.017
					c0-0.831,0.69-1.338,1.563-1.338c0.549,0,1.147,0.191,1.613,0.499l-0.399,0.715c-0.424-0.258-0.873-0.416-1.238-0.416
					c-0.391,0-0.615,0.183-0.615,0.441v0.017c0,0.316,0.474,0.449,0.989,0.615c0.64,0.199,1.363,0.49,1.363,1.28v0.017
					C39.901,26.537,39.186,26.994,38.272,26.994z"/>
				<path class="st1" d="M42.736,27.011c-1.305,0-2.269-1.022-2.269-2.278c0-1.255,0.964-2.302,2.277-2.302
					c0.831,0,1.347,0.308,1.754,0.756l-0.623,0.673c-0.308-0.324-0.632-0.549-1.139-0.549c-0.731,0-1.263,0.632-1.263,1.405
					c0,0.79,0.54,1.421,1.313,1.421c0.474,0,0.823-0.224,1.139-0.549l0.607,0.598C44.099,26.67,43.592,27.011,42.736,27.011z"/>
				<path class="st1" d="M47.366,27.011c-1.338,0-2.327-1.022-2.327-2.278c0-1.263,0.997-2.302,2.344-2.302s2.336,1.022,2.336,2.286
					C49.719,25.972,48.721,27.011,47.366,27.011z M47.366,23.312c-0.806,0-1.322,0.632-1.322,1.405c0,0.781,0.557,1.421,1.338,1.421
					c0.815,0,1.33-0.632,1.33-1.405C48.713,23.952,48.156,23.312,47.366,23.312z"/>
				<path class="st1" d="M53.475,22.522h1.056l-1.795,4.422H51.83l-1.804-4.422h1.081l1.18,3.225L53.475,22.522z"/>
				<path class="st1" d="M57.115,26.188c0.49,0,0.84-0.183,1.189-0.524l0.59,0.524c-0.416,0.499-0.989,0.823-1.795,0.823
					c-1.272,0-2.253-0.923-2.253-2.286c0-1.263,0.889-2.294,2.145-2.294c1.396,0,2.103,1.097,2.103,2.369
					c0,0.091-0.008,0.175-0.017,0.274h-3.225C55.968,25.789,56.467,26.188,57.115,26.188z M58.096,24.409
					c-0.067-0.648-0.449-1.155-1.114-1.155c-0.615,0-1.047,0.474-1.139,1.155H58.096z"/>
				<path class="st1" d="M61.063,26.911h-1.006v-4.389h1.006v0.989c0.274-0.657,0.781-1.105,1.554-1.072v1.064H62.56
					c-0.881,0-1.496,0.574-1.496,1.737v1.671H61.063z"/>
				<path class="st1" d="M65.785,27.036c-0.349,0.898-0.74,1.23-1.446,1.23c-0.424,0-0.731-0.1-1.039-0.266l0.341-0.748
					c0.183,0.1,0.382,0.166,0.59,0.166c0.283,0,0.457-0.125,0.623-0.507l-1.829-4.389h1.072l1.247,3.258l1.139-3.258h1.047
					L65.785,27.036z"/>
			</g>
			<polygon class="st1" points="74.462,23.409 71.889,23.409 71.889,20.836 70.96,20.836 70.96,23.409 68.387,23.409 68.387,24.337 
				70.96,24.337 70.96,26.911 71.889,26.911 71.889,24.337 74.462,24.337 			"/>
		</g>
		<path class="st1" d="M19.559,17.698c3.475,0,6.302,2.827,6.302,6.302s-2.827,6.302-6.302,6.302h-4.022
			c-2.52,0-4.571-2.05-4.571-4.571c0-2.336,1.761-4.268,4.026-4.538v-3.496h4.567 M15.53,21.161c0.002,0,0.005,0,0.007,0
			c2.52,0,4.571,2.05,4.571,4.571c0,1.744-0.982,3.262-2.421,4.033h1.872c3.178,0,5.764-2.586,5.764-5.764s-2.586-5.764-5.764-5.764
			H15.53V21.161 M15.537,29.764c2.224,0,4.033-1.809,4.033-4.033s-1.809-4.033-4.033-4.033s-4.033,1.809-4.033,4.033
			S13.313,29.764,15.537,29.764 M19.559,17.27h-4.567h-0.428v0.428v3.13c-2.32,0.458-4.026,2.502-4.026,4.904
			c0,2.756,2.242,4.999,4.999,4.999h4.022c3.711,0,6.73-3.019,6.73-6.73C26.289,20.289,23.27,17.27,19.559,17.27L19.559,17.27z"/>
	</g>
</g>
</svg>
