<?xml version="1.0" encoding="UTF-8"?>
<svg width="85px" height="48px" viewBox="0 0 85 48" version="1.1" xmlns="http://www.w3.org/2000/svg" xmlns:xlink="http://www.w3.org/1999/xlink">
    <title>sky-go-logo</title>
    <g id="sky-go-logo" stroke="none" stroke-width="1" fill="none" fill-rule="evenodd">
        <rect id="Box" fill-opacity="0.05" fill="#001D2F" x="0" y="0" width="85" height="48" rx="5"></rect>
        <g id="Logo-1" transform="translate(10.000000, 3.000000)" fill="#001D2F">
            <path d="M45.6283957,14.9230076 C47.2805572,14.9230076 48.6065166,15.0858906 49.9093627,15.342971 C50.513796,15.4587553 50.7935536,15.738949 50.7935536,16.3446907 L50.7935536,25.9458487 C50.7935536,30.3506678 49.444481,31.79481 45.092866,31.79481 C43.231595,31.79481 41.9525163,31.6790257 41.2314265,31.5621511 C40.71901,31.4686079 40.3707849,31.235949 40.3936801,30.6299893 L40.4407788,29.5807348 C40.4407788,29.4185059 40.5101185,29.3256168 40.6492341,29.3256168 C41.1378832,29.3480759 42.325163,29.6282696 45.0010672,29.6282696 C47.7685521,29.6282696 48.2111927,28.8823221 48.2111927,26.6911421 C47.7225437,26.7613541 46.7456817,26.8309119 45.488844,26.8309119 C42.3707354,26.8309119 39.4865939,26.0162787 39.4865939,21.0990432 C39.4865939,17.3466284 40.4165753,14.9230076 45.6283957,14.9230076 Z M24.1965229,14.9234437 C24.7542937,14.9234437 25.0569465,15.1338615 25.3356138,15.5765021 L29.5936856,22.3582794 L32.6178148,15.4829588 C32.7578027,15.1338615 32.9671302,14.9234437 33.4086806,14.9234437 L35.5726044,14.9234437 C35.8281585,14.9234437 36.0612534,15.1338615 36.0612534,15.3891975 C36.0612534,15.5304936 36.0150269,15.6933766 35.9212656,15.8564777 L28.8028198,30.980613 C28.7092766,31.1663912 28.5701609,31.4468029 28.1046251,31.4468029 L25.9642507,31.4468029 C25.7551412,31.4468029 25.4989329,31.2597164 25.4989329,30.980613 C25.4989329,30.7708493 25.5453775,30.6539747 25.6149353,30.5146411 L28.0352854,25.5967514 L22.7072445,17.6272582 L19.9620007,20.5639496 L23.474997,25.8071692 C23.6838884,26.0864907 23.730551,26.2262604 23.730551,26.3664663 C23.730551,26.5995613 23.474997,26.8091069 23.1723442,26.8091069 L20.7526484,26.8091069 C20.403333,26.8091069 20.1944416,26.57623 19.9620007,26.2495917 L15.8905794,20.3535318 L20.403333,15.4829588 C20.7295352,15.1107482 21.0315336,14.9234437 21.5903947,14.9234437 L24.1965229,14.9234437 Z M58.8426349,14.9230076 C62.2160796,14.9230076 64.9384283,16.2749148 64.9384283,20.8190676 C64.9384283,24.4548259 63.7286894,27.0875562 58.8426349,27.0875562 C53.9567985,27.0875562 52.7464055,24.4548259 52.7464055,20.8190676 C52.7464055,16.2749148 55.4689722,14.9230076 58.8426349,14.9230076 Z M15.0994956,9.7499999 C15.4481569,9.7499999 15.6805977,9.98309487 15.6805977,10.3095151 L15.6805977,25.5967514 C15.6805977,26.3664663 15.0994956,26.8091069 14.4710768,26.8091069 L12.6325702,26.8091069 C12.4236351,26.8091069 12.1677758,26.5995613 12.1677758,26.2495917 L12.1677758,10.9859048 C12.1677758,10.0524346 12.6325702,9.7499999 13.4477048,9.7499999 L15.0994956,9.7499999 Z M10.1675854,14.9234437 C10.4925446,14.9234437 10.7250727,15.1338615 10.7250727,15.4829588 L10.7250727,16.6251024 C10.7250727,17.2768525 10.3762806,17.8365857 9.49171897,17.8365857 L4.28109771,17.8365857 C3.58292484,17.8365857 3.37296492,18.0692446 3.37296492,18.2800985 C3.37296492,18.6291959 3.58292484,18.7689656 4.37352892,18.955398 L7.88702688,19.7713394 C10.0968937,20.2837559 11.143706,21.4263356 11.143706,23.3139906 C11.143706,25.2478721 9.81794291,26.8091069 6.65367317,26.8091069 L0.651183194,26.8091069 C0.348813875,26.8091069 0.209545623,26.5995613 0.209545623,26.2495917 L0.209545623,25.1078843 C0.209545623,24.455262 0.557836179,23.9195142 1.41878305,23.9195142 L6.83977847,23.9195142 C7.44495321,23.9195142 7.67748125,23.6393205 7.67748125,23.4299929 C7.67748125,23.1031367 7.44495321,22.8942452 6.72395055,22.7311441 L3.2800322,21.9847605 C1.14009391,21.5185705 0,20.3535318 0,18.5589839 C0,16.5082278 1.41878305,14.9234437 4.1411535,14.9234437 L10.1675854,14.9234437 Z M58.8426349,17.1608502 C56.0744958,17.1608502 55.3994144,18.255895 55.3994144,20.8190676 C55.3994144,24.0821792 56.3300499,24.8041412 58.8426349,24.8041412 C61.355438,24.8041412 62.2854194,24.0821792 62.2854194,20.8190676 C62.2854194,18.255895 61.6114282,17.1608502 58.8426349,17.1608502 Z M45.814174,17.1828732 C42.9993723,17.1828732 42.1153994,17.6965979 42.1153994,21.1454877 C42.1153994,23.592876 42.6269436,24.5706102 45.6752764,24.5706102 C46.6519204,24.5706102 47.838328,24.4548259 48.2111927,24.3375152 L48.2111927,17.7663738 C48.2111927,17.5330607 48.0943182,17.4164042 47.9083219,17.3699597 C47.4898848,17.2761984 46.698583,17.1828732 45.814174,17.1828732 Z" id="Combined-Shape"></path>
        </g>
    </g>
</svg>