<?xml version="1.0" encoding="UTF-8"?>
<svg width="370px" height="260px" viewBox="0 0 370 260" version="1.1" xmlns="http://www.w3.org/2000/svg" xmlns:xlink="http://www.w3.org/1999/xlink">
    <title>SVG/us-location-globe_-_US___Latin_America_3x</title>
    <defs>
        <circle id="path-1" cx="115" cy="115" r="115"></circle>
        <linearGradient x1="15.3319283%" y1="50%" x2="76.8055474%" y2="50%" id="linearGradient-3">
            <stop stop-color="#001D2F" offset="0%"></stop>
            <stop stop-color="#F0EACF" stop-opacity="0" offset="100%"></stop>
        </linearGradient>
        <linearGradient x1="27.3908681%" y1="45.5282205%" x2="92.1656879%" y2="45.5282205%" id="linearGradient-4">
            <stop stop-color="#001D2F" offset="0%"></stop>
            <stop stop-color="#B6D1D0" offset="100%"></stop>
        </linearGradient>
        <radialGradient cx="25.3707807%" cy="28.9633222%" fx="25.3707807%" fy="28.9633222%" r="144.353461%" id="radialGradient-5">
            <stop stop-color="#F0EACF" offset="0%"></stop>
            <stop stop-color="#001D2F" offset="100%"></stop>
        </radialGradient>
        <circle id="path-6" cx="86.5" cy="86.5" r="86.5"></circle>
        <linearGradient x1="5.76147252%" y1="37.9501842%" x2="50%" y2="59.2231469%" id="linearGradient-8">
            <stop stop-color="#B6D1D0" offset="0%"></stop>
            <stop stop-color="#001D2F" offset="100%"></stop>
        </linearGradient>
        <filter id="filter-9">
            <feColorMatrix in="SourceGraphic" type="matrix" values="0 0 0 0 0.941176 0 0 0 0 0.917647 0 0 0 0 0.811765 0 0 0 1.000000 0"></feColorMatrix>
        </filter>
    </defs>
    <g id="us-location-globe_-_US___Latin_America_3x" stroke="none" stroke-width="1" fill="none" fill-rule="evenodd">
        <g id="Group" transform="translate(53.000000, 15.000000)">
            <g id="Rectangle" transform="translate(35.000000, 0.000000)">
                <mask id="mask-2" fill="white">
                    <use xlink:href="#path-1"></use>
                </mask>
                <use id="Mask" fill="#B6D1D0" xlink:href="#path-1"></use>
                <rect fill="url(#linearGradient-3)" opacity="0.5" mask="url(#mask-2)" x="115" y="142" width="160" height="60"></rect>
            </g>
            <path d="M35,29 L154,29 L154,29 L154,99 L35,99 C15.6700338,99 2.36723813e-15,83.3299662 0,64 C-2.36723813e-15,44.6700338 15.6700338,29 35,29 Z" id="Rectangle" fill="url(#linearGradient-4)"></path>
            <g id="Globe-america" transform="translate(64.000000, 29.000000)">
                <mask id="mask-7" fill="white">
                    <use xlink:href="#path-6"></use>
                </mask>
                <g id="Mask" fill-rule="nonzero">
                    <use fill="url(#radialGradient-5)" xlink:href="#path-6"></use>
                    <use fill="#F0EACF" xlink:href="#path-6"></use>
                </g>
                <g id="Group" mask="url(#mask-7)">
                    <g transform="translate(13.000000, -28.000000)" id="Steps/Map">
                        <path d="M117.945953,2.60603278 C118.665589,2.60603278 119.248969,3.18941309 119.248969,3.90904917 C119.248969,4.72681118 118.854221,5.49428196 118.188983,5.96987963 L105.701516,14.8975275 C105.029566,15.3779239 104.224224,15.6361967 103.398211,15.6361967 L101.543882,15.6361967 C99.8183085,15.6361967 98.4194549,17.0350504 98.4194549,18.7606238 L98.4194549,24.184758 C98.4194549,26.3720243 100.192585,28.145154 102.379851,28.145154 L107.882044,28.145154 C109.13617,28.145154 110.316182,28.739166 111.063204,29.7465341 L118.469733,39.734324 C118.975777,40.41673 119.248969,41.2437763 119.248969,42.0933399 L119.248969,46.0694539 C119.248969,47.5133945 118.078424,48.6839396 116.634483,48.6839396 C116.280125,48.6839396 115.929465,48.6119044 115.603804,48.4722097 L113.900727,47.7416625 C112.686991,47.2210216 111.812648,46.129619 111.569366,44.8315292 L111.052722,42.0748438 C110.963116,41.596732 110.786198,41.1392186 110.530823,40.725209 L108.432398,37.3232706 C107.71116,36.1540092 106.435485,35.4420458 105.061674,35.4420458 L100.060948,35.4420458 C99.0099686,35.4420458 98.0020865,35.8597899 97.259266,36.6032789 L86.0389843,47.8336596 C85.2970365,48.5762753 84.8802706,49.5830775 84.8802706,50.6328225 L84.8802706,51.6696312 C84.8802706,52.6321749 85.230816,53.5617743 85.8663768,54.2846525 L95.6488244,65.4110758 C96.0859569,65.9082643 96.715951,66.1932326 97.3779792,66.1932326 C97.9741701,66.1932326 98.4782534,65.751847 98.5569786,65.1608766 L101.131311,45.8360056 C101.367487,44.0630943 102.879736,42.7389376 104.668309,42.7389376 L104.937432,42.7389376 C106.642501,42.7389376 108.156178,43.830245 108.694932,45.4479602 L110.25901,50.1444167 C110.652032,51.324544 111.756263,52.1206556 113.000115,52.1206556 L113.253133,52.1206556 C114.414117,52.1206556 115.516631,52.6300812 116.269098,53.5142067 L126.188864,65.1696307 C126.719366,65.7929541 126.836387,66.668901 126.488113,67.4096235 C126.219742,67.9804077 125.539471,68.2255614 124.968687,67.9571896 C124.91277,67.9308986 124.859079,67.900113 124.808143,67.8651358 L123.386411,66.888854 C122.726584,66.4357615 121.944955,66.1932326 121.14454,66.1932326 L114.563735,66.1932326 C113.700171,66.1932326 113.000115,66.893289 113.000115,67.7568523 C113.000115,68.7286147 113.50405,69.6308652 114.331455,70.1404958 L118.660257,72.8067712 C119.349761,73.2314633 119.769707,73.9833387 119.769707,74.7931408 C119.769707,75.5127768 119.186327,76.0961572 118.466691,76.0961572 L110.509561,76.0961572 C109.143486,76.0961572 107.873853,76.8001839 107.150303,77.9589053 L103.707234,83.4727745 C103.314382,84.101904 103.106096,84.8287103 103.106096,85.5704224 L103.106096,87.4428188 C103.106096,88.2016798 102.888074,88.9445643 102.477975,89.5830697 L99.5884959,94.0818612 C98.8599351,95.216198 97.6043746,95.9020063 96.25622,95.9020063 L83.6332881,95.9020063 C81.4460217,95.9020063 79.672892,97.675136 79.672892,99.8624023 L79.672892,103.462548 C79.672892,105.331919 81.1883169,106.847344 83.0576881,106.847344 L85.1882934,106.847344 C85.9833886,106.847344 86.7378109,106.495846 87.2492793,105.887096 L87.3611093,105.753996 C87.6166486,105.449853 88.0703607,105.410452 88.3745036,105.665991 C88.4474376,105.72727 88.5074728,105.802426 88.5511239,105.887096 C88.8695668,106.50478 88.9452337,107.2193 88.7632273,107.889981 L88.5511239,108.671567 C88.3420233,109.442088 88.7971447,110.236229 89.5676661,110.44533 C89.6910822,110.478822 89.8183966,110.49579 89.9462764,110.49579 L92.4665674,110.49579 C94.0910239,110.49579 95.4410625,111.747597 95.5635497,113.367429 L95.6300611,114.24701 C95.7247984,115.499863 96.4084029,116.633441 97.4722844,117.301851 L99.234,118.408 L100.096591,118.859014 C100.340017,118.986349 100.607275,119.061641 100.881373,119.080102 L101.65918,119.132487 C102.384745,119.181354 103.07089,118.797805 103.409346,118.154159 L103.500102,117.981567 C103.898254,117.224397 104.683254,116.750269 105.538727,116.750269 L122.260726,116.750269 C123.014479,116.750269 123.75258,116.965367 124.388328,117.370298 L150.222659,133.825124 C151.364248,134.552244 152.055454,135.812003 152.055454,137.165491 L152.055454,149.473558 C152.055454,150.545101 151.621252,151.570913 150.851961,152.316834 L119.074859,183.12861 C118.844626,183.351849 118.64236,183.602225 118.472504,183.874239 L114.830704,189.706365 C114.029185,190.989948 114.029185,192.618077 114.830704,193.90166 L116.244744,196.166161 C116.977901,197.340269 116.62044,198.886413 115.446333,199.61957 C115.025889,199.882111 114.537037,200.014087 114.041591,199.998811 L111.117225,199.908641 C109.995446,199.874053 108.941016,199.365138 108.216042,198.508401 L106.126205,196.038737 C105.521095,195.323649 105.189047,194.417218 105.189047,193.480463 L105.189047,176.845531 C105.189047,176.396981 105.265246,175.95169 105.414393,175.528663 L111.211609,159.085946 C111.360756,158.662919 111.436955,158.217628 111.436955,157.769078 L111.436955,152.890938 C111.436955,151.781483 110.971589,150.722899 110.154114,149.972816 L100.223033,140.860442 C99.4055588,140.110359 98.9401927,139.051775 98.9401927,137.94232 L98.9401927,127.466511 C98.9401927,126.929899 99.0492437,126.398883 99.2607254,125.9057 L100.850655,122.197932 C100.951004,121.963915 100.908083,121.693071 100.740299,121.501545 C100.562836,121.29897 100.320228,121.164696 100.054338,121.121893 L99.339,121.006 L90.3496618,120.447415 C89.8328461,120.41526 89.3273523,120.282067 88.861795,120.055376 L72.5262085,112.101181 C71.164012,111.437894 70.2996106,110.055568 70.2996106,108.540468 L70.2996106,105.802119 C70.2996106,104.076545 68.9007569,102.677691 67.1751835,102.677691 L65.5492104,102.677691 C64.5836423,102.677691 63.6513357,102.324944 62.9276014,101.68578 L55.5025046,95.1283276 C55.3001735,94.9496395 55.1166414,94.7507334 54.954771,94.534712 L49.740412,87.5759756 C49.2269118,86.8906924 48.9493585,86.0574329 48.9493585,85.2011062 L48.9493585,73.6465983 C48.9493585,72.2560187 48.2200455,70.9673165 47.0279175,70.2513959 L44.4367,68.695266 C43.9783022,68.4199798 43.5803966,68.0547191 43.2669711,67.6215038 L33.9922478,54.8020245 C33.2475037,53.7726427 32.0541034,53.1630687 30.7835639,53.1630687 L23.2062708,53.1630687 C22.0302921,53.1630687 20.9151323,53.6856824 20.1626889,54.5894273 L14.7267475,61.1184281 C13.9743041,62.022173 12.8591443,62.5447867 11.6831656,62.5447867 L8.49505748,62.5447867 C6.83314372,62.5447867 5.34800723,61.5071922 4.77633928,59.9466945 L0.241677841,47.5683047 C0.0818074009,47.1319019 1.4387923e-13,46.6707652 1.27897692e-13,46.2060008 L1.27897692e-13,38.6662564 C1.28175439e-13,37.3079645 0.69608617,36.0444298 1.84421213,35.318645 L8.92464951,30.8427648 C9.55788874,30.4424643 10.2916789,30.2299802 11.0408334,30.2299802 L15.6549008,30.2299802 C15.9789906,30.2299802 16.301855,30.2697614 16.6162516,30.3484313 L32.3331069,34.2811817 C32.6475035,34.3598516 32.9703679,34.3996327 33.2944577,34.3996327 L38.591491,34.3996327 C39.8637868,34.3996327 41.0586147,33.7883819 41.8030915,32.7566401 L52.9711984,17.2791893 C53.7156751,16.2474475 54.9105031,15.6361967 56.1827989,15.6361967 L68.4124126,15.6361967 C69.2977769,15.6361967 70.1576086,15.3395279 70.8545991,14.7935661 L80.6801171,7.09710922 C81.3771076,6.55114745 82.2369393,6.25447867 83.1223036,6.25447867 L90.7069198,6.25447867 C91.8438359,6.25447867 92.8773732,5.61439019 93.3878721,4.61103331 L93.4724452,4.43025572 C93.9462824,3.32364062 95.0341772,2.60603278 96.2379706,2.60603278 L117.945953,2.60603278 Z M372.971292,176.920297 L373.143828,177.192242 C373.430379,177.640545 373.714973,178.047223 374.043911,178.158306 C373.147309,179.611678 372.411202,180.955291 371.079353,181.854831 C369.146215,183.160487 369.14905,186.171878 366.974581,187.05307 C364.715973,187.968358 365.854415,184.908204 367.534776,181.755374 L367.730907,181.391395 L367.730907,181.391395 L367.960923,180.973909 L368.194523,180.559097 C369.564775,178.15107 371.042534,175.982146 371.307396,175.847978 C372.017179,175.488434 372.508594,176.192628 372.971292,176.920297 Z M338.914506,148.022662 C339.898654,148.022662 340.772333,148.652553 341.083296,149.586282 C341.408622,150.563139 342.200651,151.312761 343.193915,151.583896 L345.014409,152.080841 C346.234446,152.413878 347.493461,151.694822 347.826498,150.474785 C347.836147,150.439437 347.844946,150.403862 347.852888,150.368091 L348.147892,149.03938 C348.27978,148.44535 348.806607,148.022662 349.415102,148.022662 C350.071736,148.022662 350.691087,148.327798 351.091217,148.848436 L360.051093,160.506758 C360.58298,161.198834 360.871335,162.047237 360.871335,162.92009 L360.871335,169.695828 C360.871335,170.184095 360.781045,170.668152 360.605021,171.123585 L357.889349,178.149933 C357.558335,179.006376 356.940024,179.721194 356.140186,180.172107 L352.036917,182.48535 C351.443321,182.819993 350.773423,182.995815 350.091997,182.995815 L349.829601,182.995815 C349.002143,182.995815 348.214803,182.6393 347.668929,182.017441 L339.141914,172.303474 C338.389966,171.446855 337.305395,170.95575 336.16556,170.95575 L331.483082,170.95575 C330.307103,170.95575 329.191943,171.478364 328.4395,172.382109 L328.210937,172.656631 C327.458494,173.560376 326.343334,174.08299 325.167355,174.08299 L321.684218,174.08299 C320.454033,174.08299 319.293697,173.511325 318.544064,172.535925 L315.345907,168.374578 C314.81402,167.682503 314.525665,166.8341 314.525665,165.961247 L314.525665,160.440678 C314.525665,159.186416 315.119805,158.006293 316.127355,157.259288 L327.534875,148.801668 C328.217224,148.295769 329.044149,148.022662 329.893581,148.022662 L338.914506,148.022662 Z M375.642889,170.549847 C375.776277,170.856473 377.149514,174.385783 376.450229,175.189522 C376.075245,175.620519 373.742421,172.464214 373.624539,172.057742 C373.118401,170.312515 374.62008,170.549847 375.642889,170.549847 Z M305.066546,17.1998163 C306.050693,17.1998163 306.924372,17.8297077 307.235335,18.763436 C307.546298,19.6971644 308.419977,20.3270557 309.404125,20.3270557 L314.522853,20.3270557 C316.24998,20.3270557 317.650092,21.7271684 317.650092,23.454295 C317.650092,25.1814216 319.050205,26.5815343 320.777332,26.5815343 L333.194326,26.5815343 C334.170816,26.5815343 335.034749,27.2142083 335.329491,28.145154 L335.400579,28.3696872 C335.652997,29.1669506 336.392871,29.7087737 337.229139,29.7087737 L338.15391,29.7087737 C338.472629,29.7087737 338.790183,29.6703 339.099681,29.5941875 L344.108387,28.3624339 C344.417884,28.2863214 344.735439,28.2478478 345.054158,28.2478478 L353.089979,28.2478478 C353.721091,28.2478478 354.343065,28.3986748 354.904074,28.6877613 L362.100578,32.3960995 C362.661587,32.6851859 363.28356,32.836013 363.914672,32.836013 L386.85189,32.836013 C387.570222,32.836013 388.275028,33.0313836 388.890845,33.4012067 L399.041299,39.4969602 C399.887094,40.0048942 400.160985,41.1023088 399.653051,41.9481042 C399.583176,42.0644568 399.50027,42.1724673 399.405936,42.2700451 L398.735368,42.9636725 C398.155762,43.5632094 397.4017,43.9644947 396.580653,44.110336 L393.150116,44.7196973 C392.570491,44.8226553 392.021109,45.0535375 391.541946,45.395544 L381.691775,52.4261837 C381.020306,52.9054502 380.215932,53.1630687 379.390968,53.1630687 L375.114659,53.1630687 C373.71058,53.1630687 372.41146,53.9064956 371.700126,55.1170504 L368.911002,59.8636058 C368.759094,60.1221247 368.578318,60.3625558 368.372149,60.5802774 L364.768279,64.3860999 C364.189347,64.9974735 363.224414,65.0237729 362.61304,64.4448411 C362.438218,64.2792961 362.30509,64.0746995 362.224556,63.8478031 L361.911882,62.96688 C361.577744,62.0254824 361.611698,60.9925883 362.006942,60.0751678 L365.471989,52.0322722 C365.799296,51.2725438 365.448749,50.3913277 364.689021,50.0640209 C364.641057,50.0433573 364.592046,50.0252163 364.542188,50.0096723 C363.584651,49.7111476 362.542033,50.0304034 361.915812,50.8138835 L361.91281,50.8176392 C361.254572,51.641178 360.257519,52.1206556 359.203245,52.1206556 L350.27816,52.1206556 C349.074447,52.1206556 347.936067,52.6680971 347.184525,53.6083691 L346.290675,54.7266884 C345.116955,56.1951582 345.27736,58.3209668 346.658144,59.5966843 L349.704482,62.411219 C350.515898,63.1608932 350.977315,64.2154059 350.977315,65.3201268 L350.977315,72.2835429 C350.977315,74.3891916 349.27035,76.0961572 347.164701,76.0961572 L344.26349,76.0961572 C343.663726,76.0961572 343.071796,76.2323776 342.532363,76.49454 L338.699798,78.3571538 C337.577841,78.902421 336.778357,79.9444276 336.542166,81.169302 L335.978657,84.091628 C335.805779,84.9881626 335.947988,85.9168939 336.381212,86.7206214 L336.97055,87.8139756 C337.296413,88.4185246 337.070494,89.1727727 336.465945,89.4986358 C336.284635,89.5963652 336.081889,89.6475276 335.875917,89.6475276 L335.434459,89.6475276 C334.38348,89.6475276 333.375598,89.2297835 332.632777,88.4862945 L328.648266,84.4981975 C327.941322,83.790617 326.982118,83.3930489 325.981898,83.3930489 C325.119111,83.3930489 324.419685,84.0924758 324.419685,84.9552625 L324.419685,98.622052 C324.419685,99.8927069 323.81,101.086201 322.780464,101.830928 L314.584374,107.759659 C313.56509,108.496969 312.256138,108.706171 311.05782,108.323289 L309.864713,107.942071 C309.199061,107.729384 308.487026,108.096585 308.274339,108.762237 C308.166386,109.100103 308.205202,109.467767 308.381329,109.775641 L310.357731,113.230426 C310.700295,113.829234 310.8805,114.50714 310.8805,115.197012 L310.8805,115.968459 C310.8805,117.12548 310.371359,118.223881 309.488436,118.971642 L306.56111,121.45084 L305.333835,121.310285 C304.247304,121.185848 303.265621,121.96578 303.141185,123.052311 C303.078147,123.602728 303.248574,124.154382 303.611084,124.573331 L306.15926,127.518235 L306.409982,129.280534 C306.487002,129.8219 306.110576,130.3232 305.56921,130.40022 C305.542975,130.403952 305.5166,130.40663 305.490149,130.408247 L303.545403,130.527096 C303.189906,130.548821 302.850133,130.377936 302.655616,130.079586 L299.025621,124.511921 C298.606135,123.868516 298.382792,123.117015 298.382792,122.34894 L298.382792,117.068824 C298.382792,116.515138 298.266693,115.967604 298.041988,115.461563 L294.639555,107.799198 C294.382546,107.220408 293.808699,106.847344 293.175413,106.847344 C292.49634,106.847344 291.832484,107.048494 291.267617,107.425411 L285.636943,111.182572 C284.793218,111.745562 284.197662,112.610817 283.973061,113.599951 L281.892142,122.764237 C281.790978,123.20976 281.394938,123.525954 280.938074,123.525954 C280.43184,123.525954 279.940068,123.357103 279.540608,123.046132 L272.311271,117.418253 C271.347377,116.667884 270.783685,115.5147 270.783685,114.293166 L270.783685,109.190664 C270.783685,107.896484 269.734545,106.847344 268.440365,106.847344 C267.073596,106.847344 265.892605,105.892432 265.606473,104.555949 L265.296117,103.106316 C264.865575,101.095313 262.967421,99.7484794 260.927067,100.006259 L250.595919,101.3115 C249.490961,101.451101 248.378292,101.118991 247.53063,100.396573 L246.317394,99.3625939 C245.646162,98.7905372 244.80319,98.4588945 243.922107,98.4202383 L243.186942,98.387984 C242.106679,98.3405891 241.107321,98.9586629 240.667229,99.9463541 C240.231269,100.92477 240.467609,102.07223 241.254726,102.798731 L241.86581,103.362756 C242.754299,104.182823 244.063912,104.352101 245.131718,103.784903 L245.384268,103.650753 C246.359695,103.132623 247.507177,103.045365 248.549736,103.41004 L250.346085,104.038382 C251.533404,104.453692 252.328491,105.574129 252.328491,106.831987 L252.328491,106.935438 C252.328491,108.191299 251.732843,109.37273 250.723151,110.119531 L246.331235,113.367932 C245.649555,113.872125 244.824058,114.144236 243.976179,114.144236 L237.925049,114.144236 C236.610332,114.144236 235.381314,113.491805 234.644684,112.402835 L227.704657,102.14332 C227.467751,101.793099 227.07249,101.583273 226.649668,101.583273 C226.242888,101.583273 225.878702,101.835399 225.735512,102.216144 L225.529,102.763 L232.147762,114.246429 C232.85485,115.473152 234.163052,116.229062 235.57897,116.229062 L240.837743,116.229062 C242.996652,116.229062 244.746793,117.979203 244.746793,120.138111 L244.746793,121.902875 C244.746793,123.240649 244.071432,124.488009 242.951199,125.219254 L234.565415,130.693165 C233.445183,131.42441 232.769822,132.67177 232.769822,134.009544 L232.769822,149.616101 C232.769822,150.280477 232.602684,150.934178 232.283795,151.517021 L221.919645,170.459894 C221.224892,171.729715 219.892732,172.51937 218.445276,172.51937 L208.594763,172.51937 C206.866545,172.51937 205.337886,171.398732 204.817891,169.750598 L199.626122,153.295201 C199.50449,152.909687 199.442599,152.507823 199.442599,152.103576 L199.442599,137.148376 C199.442599,136.420182 199.241831,135.706086 198.862363,135.08458 L194.872474,128.549793 C194.153223,127.371777 192.872547,126.653193 191.492313,126.653193 L174.341785,126.653193 C172.558612,126.653193 170.995333,125.461498 170.522909,123.742044 L166.111898,107.687569 C165.785795,106.500672 166.030087,105.229621 166.772939,104.248174 L177.424573,90.175362 C178.173192,89.1862961 179.341973,88.6051145 180.582409,88.6051145 L198.77814,88.6051145 C199.218038,88.6051145 199.654863,88.6784032 200.070675,88.8219707 L220.391398,95.8381223 L220.506,95.882 L222.393522,96.3754133 C222.761341,96.4716159 223.149079,96.4598986 223.510417,96.3416611 L225.287865,95.7600429 C226.620606,95.3239424 227.522006,94.0805533 227.522006,92.6782766 L227.522006,92.1617244 C227.522006,91.0979504 226.764977,90.1847526 225.719642,89.9875478 L225.709881,89.9857063 C224.670207,89.7895694 223.917278,88.8813174 223.917278,87.8233047 C223.917278,86.8158141 223.100546,85.9990817 222.093055,85.9990817 L213.244261,85.9990817 C211.948916,85.9990817 210.898832,84.9489972 210.898832,83.6536522 L210.898832,83.0591225 C210.898832,81.9439183 210.428647,80.880397 209.603799,80.12986 L209.355177,79.9036368 C208.650336,79.2622961 207.559041,79.3137727 206.9177,80.0186131 C206.844445,80.0991213 206.778972,80.1863807 206.722157,80.2792244 L205.991621,81.473022 L206.061242,82.5118262 C206.097807,83.0574188 205.685159,83.5293512 205.139566,83.5659166 C204.8523,83.5851691 204.570881,83.4784253 204.368646,83.2735022 L202.860346,81.7451542 L201.6401,79.2233965 C200.325364,78.4671419 199.43926,78.2284526 198.981788,78.5073287 C198.295579,78.9256429 199.191061,81.1511431 199.971887,82.088794 C200.387848,82.5882992 200.910734,83.0683167 201.540543,83.5288466 C201.718549,83.6590487 201.757339,83.9088953 201.627163,84.0869207 C201.596343,84.1290689 201.557557,84.1647638 201.513,84.1919845 L201.33809,84.2988392 C201.115179,84.4350185 200.955116,84.6537703 200.892771,84.9074375 L200.616681,86.0307795 C200.515549,86.4422612 200.108101,86.7009427 199.69269,86.6174054 C199.260512,86.5304964 198.949604,86.150842 198.949604,85.7100121 L198.949604,84.2314892 C198.949604,83.9995732 198.868193,83.7750161 198.719569,83.5969824 L196.883877,81.3980415 C196.834063,81.3383699 196.777395,81.2847721 196.715044,81.2383554 L195.49798,80.3323215 C194.985368,79.9507112 194.363348,79.744603 193.724288,79.744603 L192.909649,79.744603 C191.795812,79.744603 190.765864,80.3364425 190.20501,81.2987716 L188.682445,83.9112334 C187.935288,85.1932264 186.534191,85.9500146 185.052416,85.8719562 L180.906714,85.653565 C178.980104,85.5520732 177.406957,84.0770702 177.181737,82.1609799 L177.049986,81.0400869 C176.79465,78.8677754 178.348665,76.899778 180.520977,76.6444418 C180.674426,76.6264052 180.828798,76.6173637 180.983304,76.6173637 L185.641405,76.6173637 C186.648896,76.6173637 187.465628,75.8006313 187.465628,74.7931408 C187.465628,73.7856502 186.648896,72.9689178 185.641405,72.9689178 L182.259656,72.9689178 C181.396093,72.9689178 180.696036,72.2688614 180.696036,71.4052981 C180.696036,70.5417349 181.396093,69.8416785 182.259656,69.8416785 L185.902009,69.8416785 C186.765572,69.8416785 187.465628,69.1416221 187.465628,68.2780588 C187.465628,67.3305102 188.033344,66.4751857 188.90652,66.1072018 L194.937286,63.5656466 C196.405229,62.9470087 197.359648,61.5090761 197.359648,59.9161003 L197.359648,57.331315 C197.359648,56.4685283 196.660221,55.7691015 195.797434,55.7691015 C194.934647,55.7691015 194.23522,55.0696746 194.23522,54.2068879 L194.23522,48.0267897 C194.23522,46.9770447 194.651986,45.9702425 195.393934,45.2276268 L206.614216,33.9972462 C207.357036,33.2537571 208.364918,32.836013 209.415898,32.836013 L215.584066,32.836013 C216.44763,32.836013 217.147686,32.1359566 217.147686,31.2723933 C217.147686,30.4088301 217.847743,29.7087737 218.711306,29.7087737 L220.532482,29.7087737 C222.401853,29.7087737 223.917278,31.2241985 223.917278,33.0935697 L223.917278,33.2083222 C223.917278,35.1410694 225.484079,36.7078706 227.416827,36.7078706 L246.762227,36.7078706 C247.487604,36.7078706 248.19905,36.5086511 248.818942,36.1319476 L263.587108,27.1574574 C264.207001,26.7807538 264.918447,26.5815343 265.643824,26.5815343 L283.019385,26.5815343 C284.026875,26.5815343 284.843607,25.7648019 284.843607,24.7573114 C284.843607,23.6632812 285.531191,22.687302 286.56138,22.3190462 L292.126975,20.3295445 C292.131617,20.3278853 292.136261,20.3262347 292.140909,20.3245929 L300.34629,17.4259697 C300.769993,17.2762926 301.21608,17.1998163 301.665444,17.1998163 L305.066546,17.1998163 Z M242.1162,146.815362 C242.576627,146.562439 243.154435,146.713133 243.432692,147.158707 L243.432692,147.158707 L244.180066,148.35548 C244.278292,148.51277 244.330371,148.694483 244.330371,148.879924 L244.330371,148.879924 L244.330371,153.528059 C244.330371,153.686764 244.29222,153.843144 244.219133,153.984018 L244.219133,153.984018 L240.269389,161.597155 C239.737605,162.62217 238.7272,163.312166 237.578941,163.434438 C237.488219,163.444098 237.396822,163.445722 237.305815,163.439288 C236.452811,163.378991 235.810196,162.638615 235.870494,161.785612 L235.870494,161.785612 L236.430912,153.857569 C236.531691,152.431894 237.392804,151.171115 238.684125,150.558582 L238.684125,150.558582 L240.486072,149.703836 C240.831597,149.539937 241.051839,149.191702 241.051839,148.809275 L241.051839,148.809275 L241.051839,147.985806 C241.051839,147.624541 241.248605,147.291953 241.565241,147.118017 L241.565241,147.118017 Z M323.08369,145.493282 C323.373841,145.704965 323.924153,145.933542 324.734627,146.179014 L324.734645,146.178955 C324.96715,146.249375 325.098546,146.494944 325.028126,146.727449 C324.968801,146.923322 324.784427,147.048599 324.587103,147.03943 L324.50207,147.027083 L324.50207,147.027083 C323.373053,146.749367 321.593594,146.424443 319.723034,146.084551 L319.159693,145.982166 C318.877214,145.930782 318.593945,145.879133 318.311773,145.827328 L317.749448,145.723545 C314.390988,145.099986 311.371654,144.464485 311.953522,144.005057 C312.19029,143.818112 312.316502,143.155842 312.908988,143.087582 C314.864616,142.862277 318.856349,143.802876 323.08369,145.493282 Z M330.095909,136.500298 C329.75899,136.286212 329.825702,135.220516 330.876391,135.648554 C332.574771,137.046915 332.246775,136.378167 335.174141,137.160208 C341.686786,136.011853 344.60131,138.862724 346.807377,138.473735 C349.013443,138.084746 350.005187,140.687625 351.493496,140.779781 C352.981804,140.871937 353.963943,142.77727 352.011327,143.716549 C350.969932,144.217498 350.254133,143.677499 349.533154,143.055205 L349.261898,142.81986 C348.716316,142.348943 348.144563,141.89914 347.407091,141.874882 C346.744518,141.853088 346.163271,142.544827 345.53116,143.208537 L345.365021,143.380556 C344.276485,144.488204 343.008652,145.329859 340.917038,142.290111 C337.484648,137.301805 336.129191,142.576564 330.095909,136.500298 Z M299.497326,131.892059 L299.587403,131.895609 L301.016693,132.080712 C301.155832,132.098732 301.289553,132.146117 301.408994,132.219727 L301.408994,132.219727 L311.485863,138.430034 C311.678852,138.548972 311.825181,138.730534 311.900403,138.944386 L311.900403,138.944386 L312.323243,140.146506 C312.40738,140.385704 312.396539,140.648065 312.292955,140.879506 L312.292955,140.879506 L311.331858,143.026911 C311.275433,143.152984 311.193254,143.265855 311.090602,143.358271 C310.684215,143.724138 310.058181,143.691289 309.692314,143.284902 L309.692314,143.284902 L303.959066,136.916679 C303.932013,136.88663 303.903144,136.858266 303.872623,136.831747 L303.872623,136.831747 L299.19563,132.768047 C299.069364,132.658339 299.006392,132.492713 299.027875,132.326829 C299.063306,132.053242 299.313816,131.860178 299.587403,131.895609 Z M322.832877,127.180412 L325.244413,129.697586 C325.539658,130.005731 325.604218,130.468383 325.40463,130.845593 C324.580164,132.403784 324.12224,133.466202 324.030858,134.032846 C323.682025,136.195879 323.63905,141.576937 321.440804,141.576937 C320.758462,141.576937 318.966202,141.112148 316.064022,140.182569 L315.724232,140.07324 C315.259236,139.922992 314.866218,139.606113 314.620777,139.183557 C313.409754,137.09864 312.817867,135.75073 312.845113,135.139827 C312.857718,134.857216 312.920071,134.603946 313.032173,134.380018 C313.221321,134.002187 313.46154,133.615473 313.752829,133.219877 C314.062663,132.799096 314.579115,133.260655 315.302185,132.624355 C316.138692,131.88823 318.190328,130.056134 321.457093,127.128069 C321.854761,126.771639 322.463443,126.794796 322.832877,127.180412 Z M325.030456,107.517103 C325.081947,107.519501 325.133267,107.524743 325.18418,107.532807 C326.120187,107.681056 326.877703,108.373006 327.109853,109.291806 L328.416507,114.463271 C328.571274,115.075804 329.076284,115.537104 329.700289,115.635937 C330.268398,115.725916 330.655999,116.259403 330.56602,116.827513 L329.546433,123.264929 C329.388968,124.259121 328.455367,124.937423 327.461175,124.779958 C326.428292,124.616366 325.672923,123.718109 325.688931,122.672474 L325.753935,118.426558 C325.764655,117.726356 325.291111,117.118677 324.62397,116.949169 L324.488046,116.921212 C323.756048,116.805275 323.228306,116.157444 323.262771,115.417123 L323.568551,108.848946 C323.604466,108.077474 324.258983,107.481188 325.030456,107.517103 Z M2.3366138,107.743357 C2.82351619,107.494491 3.41997457,107.687457 3.66884088,108.17436 L3.66884088,108.17436 L3.84952062,108.527856 C3.87463162,108.576986 3.895592,108.628128 3.91218284,108.680749 C4.07660889,109.202259 3.78713534,109.75832 3.26562556,109.922746 L3.26562556,109.922746 L2.51500827,110.159407 C2.06244895,110.302094 1.57228701,110.103633 1.34647892,109.686284 L1.34647892,109.686284 L1.26248107,109.531036 C1.01884973,109.080745 1.15869396,108.518979 1.58499761,108.23546 L1.58499761,108.23546 L2.238933,107.800551 C2.27037597,107.779639 2.30298952,107.760543 2.3366138,107.743357 Z M109.7553,103.198898 C111.054171,103.198898 112.253378,103.895135 112.897361,105.023121 C113.541345,106.151107 114.740552,106.847344 116.039423,106.847344 L117.061858,106.847344 C117.925421,106.847344 118.625478,107.5474 118.625478,108.410964 C118.625478,109.274527 117.925421,109.974583 117.061858,109.974583 L104.361321,109.974583 C103.187672,109.974583 102.091747,109.387769 101.441129,108.410964 C100.790511,107.434158 99.6945849,106.847344 98.5209357,106.847344 L93.1269573,106.847344 C91.8280862,106.847344 90.6288793,106.151107 89.9848958,105.023121 C89.6509504,104.438191 89.854414,103.693295 90.4393443,103.359349 C90.6235189,103.254201 90.8319296,103.198898 91.0440059,103.198898 L109.7553,103.198898 Z M358.667771,70.6244555 C359.702157,70.6244555 360.540692,71.4629909 360.540692,72.4973767 C360.540692,72.5667793 360.536835,72.6361281 360.529137,72.7051025 L359.995682,77.485231 C359.82431,79.0208438 358.775498,80.3165734 357.309276,80.8040871 L352.824454,82.2952754 C351.887876,82.6066844 351.147196,83.3325337 350.816909,84.2626224 L350.553623,85.0040378 C350.381858,85.4877276 350.117707,85.9334163 349.775868,86.3163061 L347.287392,89.103613 C346.536001,89.9452364 345.46132,90.4264357 344.333083,90.4264357 L344.012828,90.4264357 C343.495108,90.4264357 343.075413,90.0067409 343.075413,89.489021 C343.075413,89.2587325 343.160182,89.0365015 343.313551,88.8647147 L345.908828,85.9577809 C346.040353,85.810462 346.160674,85.6535116 346.268785,85.4882432 L349.581279,80.4244493 C349.763758,80.1454931 349.980727,79.8906911 350.227037,79.6660873 L353.280318,76.8818771 C353.66069,76.5350254 353.969795,76.1173459 354.190335,75.6522104 L355.677274,72.5161523 C356.225034,71.3608877 357.389226,70.6244555 358.667771,70.6244555 Z M184.115722,50.6680247 L185.859388,51.8648635 C186.192233,52.0933262 186.353034,52.5009946 186.265779,52.8951621 L185.944175,54.3479781 C185.891136,54.5875783 185.928966,54.8383379 186.050329,55.0516272 L189.548065,61.1987084 C189.595552,61.2821632 189.630646,61.3720819 189.652246,61.46564 L189.810351,62.1504683 C189.90174,62.5463201 189.742036,62.9578281 189.407537,63.1883944 L184.246288,66.7459785 C183.796064,67.0563121 183.179511,66.9429087 182.869177,66.492685 C182.849565,66.4642323 182.831456,66.4347725 182.814924,66.4044263 L182.000205,64.9088885 C181.793498,64.5294474 181.856728,64.0597815 182.156423,63.7485156 L183.092106,62.7767048 C183.311571,62.548767 183.408871,62.2296637 183.353926,61.9180531 L182.9311,59.5200893 C182.920347,59.4591023 182.903895,59.3992587 182.881961,59.3413452 L181.855299,56.6305421 C181.804757,56.4970906 181.783659,56.3542906 181.793452,56.2119252 L181.983284,53.4521584 C182.0025,53.1727991 181.902525,52.8983666 181.708119,52.6968295 L181.27682,52.2497096 C181.016466,51.9798057 181.024208,51.5499471 181.294112,51.2895934 C181.364801,51.2214051 181.449442,51.1693639 181.542195,51.1370602 L183.229772,50.5493152 C183.527163,50.4457409 183.856089,50.489814 184.115722,50.6680247 Z M180.790394,57.1364805 L180.8705,57.2105871 L181.009364,57.3615227 C181.19337,57.5615238 181.265733,57.836988 181.208703,58.0978577 L181.176289,58.2085029 L181.06218,58.5167033 C181.035021,58.5900599 181.016698,58.6662457 181.0075,58.7436513 L181.000584,58.8604733 L181.000584,61.7647019 C181.000584,62.1583263 180.768065,62.5104431 180.415305,62.6683003 L180.305982,62.7096769 L178.17238,63.3768612 C177.970999,63.4398334 177.755892,63.4365196 177.558159,63.3692855 L177.441853,63.3212935 L177.355158,63.2788887 C177.116258,63.1620371 176.947366,62.941882 176.893922,62.6856034 L176.878219,62.573754 L176.73894,60.6823707 C176.733475,60.6081575 176.736402,60.5336844 176.747588,60.4603536 L176.770544,60.3513896 L176.820409,60.1668451 C176.870716,59.9806667 176.97764,59.8158303 177.124985,59.6943301 L177.218113,59.6268062 L177.970702,59.1495295 L178.065939,59.080891 L178.065939,59.080891 L178.152383,59.0014628 L179.894797,57.198595 L179.922958,57.171118 C180.168258,56.9454363 180.536414,56.9371816 180.790394,57.1364805 Z M161.230711,-3.19744231e-14 C161.706004,-1.4786143e-14 162.177416,0.0855552484 162.622396,0.252573282 L177.393168,5.7965981 C178.126998,6.07203192 178.613085,6.77367762 178.613085,7.55749506 L178.613085,7.75491444 C178.613085,8.47815257 178.415038,9.18758292 178.040429,9.806244 L169.00696,24.7248833 C168.50498,25.5538954 167.606289,26.0603278 166.637143,26.0603278 C165.774924,26.0603278 165.075958,26.7592941 165.075958,27.6215127 L165.075958,32.8690786 C165.075958,34.4337808 164.154708,35.8517987 162.725043,36.4876843 L151.782428,41.3547341 C151.275777,41.5800817 150.727452,41.6965245 150.172946,41.6965245 L148.670658,41.6965245 C147.259822,41.6965245 145.995638,42.568019 145.493782,43.8865781 L143.132607,50.0902412 C142.547896,51.6264881 141.075002,52.6418621 139.431244,52.6418621 L138.553916,52.6418621 C137.229162,52.6418621 135.992139,51.9794969 135.257755,50.8769303 L129.807224,42.6937747 C129.374095,42.0434964 129.142988,41.2796315 129.142988,40.4983104 L129.142988,26.8934845 C129.142988,24.7062182 127.369859,22.9330885 125.182592,22.9330885 L115.919035,22.9330885 C113.731769,22.9330885 111.958639,21.1599588 111.958639,18.9726924 L111.958639,15.5515213 C111.958639,14.2937405 112.556099,13.1107405 113.568362,12.3641911 L120.804441,7.02754455 C121.485315,6.5253963 122.309098,6.25447867 123.155114,6.25447867 L128.444676,6.25447867 C128.906654,6.25447867 129.36507,6.1736489 129.799189,6.01564543 L145.671137,0.238833244 C146.105256,0.0808297693 146.563672,-1.90109719e-14 147.02565,-3.19744231e-14 L161.230711,-3.19744231e-14 Z" id="Combined-Shape" fill="url(#linearGradient-8)"></path>
                    </g>
                </g>
            </g>
            <g transform="translate(5.000000, 37.000000)" id="icon-(outlines)" filter="url(#filter-9)">
                <g transform="translate(11.458333, 6.875000)">
                    <path d="M16.0416667,0 C24.9478974,0 32.0833333,7.78411186 32.0833333,17.2916665 C32.0833333,23.0538437 29.2716574,28.6771956 24.6469509,34.0026152 C23.0674783,35.8214019 21.3808071,37.4774063 19.6929816,38.9435982 C18.9282474,39.6079127 18.2852455,40.1299695 17.8088112,40.4969176 L17.8088112,40.4969176 L17.3895601,40.8116869 C16.5859861,41.3961044 15.4973473,41.3961044 14.6937732,40.8116869 C14.3333658,40.5495724 13.7914456,40.1280657 13.1128479,39.5600175 L13.1128479,39.5600175 L12.3903518,38.9435982 C10.7025262,37.4774063 9.01585504,35.8214019 7.43638243,34.0026152 C2.81167595,28.6771956 0,23.0538437 0,17.2916665 C0,7.78411186 7.13543598,0 16.0416667,0 Z M16.0416667,9.16666667 C12.244709,9.16666667 9.16666667,12.244709 9.16666667,16.0416667 C9.16666667,19.8386243 12.244709,22.9166667 16.0416667,22.9166667 C19.8386243,22.9166667 22.9166667,19.8386243 22.9166667,16.0416667 C22.9166667,12.244709 19.8386243,9.16666667 16.0416667,9.16666667 Z M16.0416667,13.75 C17.3073192,13.75 18.3333333,14.7760141 18.3333333,16.0416667 C18.3333333,17.3073192 17.3073192,18.3333333 16.0416667,18.3333333 C14.7760141,18.3333333 13.75,17.3073192 13.75,16.0416667 C13.75,14.7760141 14.7760141,13.75 16.0416667,13.75 Z" id="Combined-Shape" fill="#001D2F" fill-rule="nonzero"></path>
                </g>
            </g>
        </g>
    </g>
</svg>